<?xml version="1.0" encoding="utf-8"?>
<!-- Generator: Adobe Illustrator 25.2.1, SVG Export Plug-In . SVG Version: 6.00 Build 0)  -->
<svg version="1.1" id="Layer_1" xmlns="http://www.w3.org/2000/svg" xmlns:xlink="http://www.w3.org/1999/xlink" x="0px" y="0px"
	 viewBox="0 0 400 400" style="enable-background:new 0 0 400 400;" xml:space="preserve">
<style type="text/css">
	.st0{fill:#9B2226;}
	.st1{fill:#871F2C;}
	.st2{opacity:0.51;}
	.st3{fill:#AA2731;}
</style>
<g>
	<path class="st0" d="M358.1,87.1c2.1,2.9,4.1,5.8,6,8.7c8.8,13.5,15.6,27.7,20.6,42.4c3.8,11.2,6.6,22.5,8.3,34
		c1.4,9.1,2,18.3,2.1,27.5c0,11.8-1,23.6-3.1,35.2c-4.4,24.5-13.6,48.1-27.3,69.5c-12.5,19.6-28.8,37.2-48.7,51.7
		c-50.1,36.6-112,45.4-167.4,29.2c-9.5-2.8-18.8-6.3-27.9-10.5c-8.4-3.9-16.6-8.5-24.4-13.7c-8.9-5.9-17.4-12.5-25.3-20
		c-2.4-2.3-4.8-4.6-7.1-7c-6-6.2-11.7-13-17-20.2c-1.3-1.9-2.7-3.7-3.9-5.6c-3.1-4.6-6-9.2-8.7-14l0,0c-3.9-6.9-7.3-14-10.2-21.2
		l0,0c-3.6-8.8-6.5-17.8-8.7-27c-1.6-6.5-2.8-13.1-3.7-19.7c-2.1-15.9-2.3-31.9-0.5-47.7c2.3-20.1,7.7-39.8,16.2-58.4
		c7.9-17.3,18.4-33.6,31.5-48.2C68,62.3,78,53.2,89.2,45c4.3-3.2,8.8-6.1,13.3-8.9c9.3-5.7,18.9-10.5,28.8-14.4
		C158.2,11,186.7,6.7,214.7,8.4c13.8,0.9,27.4,3.2,40.6,7c15.4,4.4,30.3,10.6,44.2,18.8c10.7,6.2,20.8,13.5,30.2,21.8
		c7.3,6.4,14.2,13.5,20.5,21.1C353,80.4,355.6,83.7,358.1,87.1z"/>
</g>
<path class="st1" d="M214.7,8.4l-30.9,11.7c0,0-62.8,31.8-87.7,45.4c-12,6.5-25.8,7.4-37,6.7C68,62.3,78,53.2,89.2,45
	c4.3-3.2,8.8-6.1,13.3-8.9l28.8-14.4C158.2,11,186.7,6.7,214.7,8.4z"/>
<path class="st1" d="M299.6,34.2c-8.5,9.3-21,19.7-39.4,30.2c-57.5,32.6-95.8,25.3-147.4,51.5c-35.4,18-77.2,46-101.5,62.9
	c2.3-20.1,7.7-39.8,16.2-58.4C45.8,107,72.1,90.4,100.4,81c52.4-17.3,77.8-8,117.3-36.7c14.1-10.3,27-20.3,37.7-28.9
	C270.7,19.8,285.6,26.1,299.6,34.2z"/>
<path class="st1" d="M364.1,95.8c8.8,13.5,15.6,27.7,20.6,42.4c-12.1,7.5-28.9,17.2-51.9,29c-64.3,32.9-81.3,30.9-104.7,29.6
	c-23.4-1.3-54.4-43.8-128.2-1.6c-37.5,21.5-65.7,38.9-84.4,50.9c-1.6-6.5-2.8-13.1-3.7-19.7c11.7-13.4,28.9-29.3,54.1-46
	c67.5-44.5,157.5-35.8,198-63.1S329.8,56,329.8,56c7.3,6.4,14.2,13.5,20.5,21.1c-4.2,3.8-9.1,8.4-15,13.8
	c-36.1,33.3-88.8,69.4-93.4,72.7c-4.6,3.3,17.5,8.1,43.3-10.7l73.9-53.9C360.8,97.9,362.4,96.9,364.1,95.8z"/>
<path class="st1" d="M303.6,198.5c0,0-17.1,32.6-41.9,36.8c-24.8,4.2-36.9,19.5-95.6,9.1c-53.9-9.6-114.4,22.9-131.5,49.9
	c-3.9-6.9-7.3-14-10.2-21.2l0,0C39,254.5,65,228.4,101.9,217c60.7-18.7,84.5,1.1,110.7,5.2C238.9,226.4,303.6,198.5,303.6,198.5z"/>
<path class="st1" d="M393,172.2c1.4,9.1,2,18.3,2.1,27.5c-3,5-6.5,10.3-10.7,15.8c-23.7,31.2-51,51.1-79.8,72.2
	c-28.8,21-67.4,9.6-100.6,8.6c0,0-46.5,12.7-77.1,42.2c-10,9.7-20.7,17.1-30.4,22.6c-8.9-5.9-17.4-12.5-25.3-20
	c31.8-16.7,56.3-49.7,79.6-66.7c28.8-21,31.7-13.8,73.7-7c42,6.8,31.5,4.7,91.6-27.5C363.5,214.4,374,189.9,393,172.2z"/>
<path class="st1" d="M144.5,262.6c0,0-44.9,56.5-80.4,71.5c-6-6.2-11.7-13-17-20.2c-1.3-1.9-2.7-3.7-3.9-5.6
	c10.4-13.4,28.1-31.2,53.2-38.4C138.5,257.7,144.5,262.6,144.5,262.6z"/>
<path class="st1" d="M392,234.9c-4.4,24.5-13.6,48.1-27.3,69.5c-7,3.8-15.6,7.7-26.2,12c-56.9,22.9-139.7,36.8-167.7,52.5
	c-8.9,5-16.3,10.8-22.2,16.4c-9.5-2.8-18.8-6.3-27.9-10.5c7-13.4,19.7-29.8,41.5-36.8c39.6-12.6,93.3-12.3,110.7-20.3
	c17.4-8,49-12.5,97-61.4C378.2,247.9,385.5,240.8,392,234.9z"/>
<g class="st2">
	<circle class="st3" cx="214.8" cy="178.9" r="142.7"/>
</g>
</svg>
