<?xml version="1.0" encoding="utf-8"?>
<!-- Generator: Adobe Illustrator 25.2.1, SVG Export Plug-In . SVG Version: 6.00 Build 0)  -->
<svg version="1.1" id="Layer_1" xmlns="http://www.w3.org/2000/svg" xmlns:xlink="http://www.w3.org/1999/xlink" x="0px" y="0px"
	 viewBox="0 0 400 400" style="enable-background:new 0 0 400 400;" xml:space="preserve">
<style type="text/css">
	.st0{fill:#C2ADBF;}
	.st1{fill:#B59EB3;}
	.st2{opacity:0.55;}
	.st3{fill:#D3C2D1;}
</style>
<g>
	<path class="st0" d="M400,200.3c0,33.4-8.3,64.9-22.8,92.6c-1.8,3.4-3.6,6.7-5.6,10c-8.1,13.6-17.9,26.2-29,37.4
		c-2.7,2.7-5.5,5.4-8.3,7.9c-25,22.7-55.7,39-89.7,46.8c-5,1.1-10,2.1-15.2,2.8c-9.6,1.4-19.4,2.2-29.3,2.2
		c-52.9,0-101-20.5-136.8-54.1c-2.7-2.5-5.2-5-7.6-7.6C28.1,309.3,9,272,2.7,230.6c-0.5-3.5-1-7.1-1.3-10.7
		c-0.6-6.6-0.9-13.1-0.9-19.6c0-37.5,10.3-72.5,28.4-102.5c2-3.2,3.9-6.4,6.1-9.5c20.7-30.5,49.7-55,83.7-70.3
		c3.3-1.4,6.6-2.9,10-4.1c22.3-8.6,46.4-13.2,71.6-13.2c37.1,0,72,10.1,101.8,27.8c3.6,2.2,7.1,4.4,10.6,6.8
		c13.4,9.2,25.7,19.9,36.5,32c3.9,4.4,7.7,9,11.2,13.7c14.5,19.5,25.6,41.6,32.3,65.5c1.1,4.1,2.2,8.3,3.1,12.6
		C398.6,172.4,400,186.2,400,200.3z"/>
</g>
<g>
	<g>
		<path class="st1" d="M116,145.3c-17.2,0-31.2-14-31.2-31.2s14-31.2,31.2-31.2s31.2,14,31.2,31.2S133.3,145.3,116,145.3z M116,92.3
			c-12,0-21.7,9.7-21.7,21.6s9.7,21.6,21.7,21.6s21.7-9.7,21.7-21.6S127.9,92.3,116,92.3z"/>
	</g>
	<g>
		<path class="st1" d="M109.4,318.4c-26.9,0-48.8-21.8-48.8-48.7s21.9-48.7,48.8-48.7s48.8,21.8,48.8,48.7
			C158.2,296.6,136.3,318.4,109.4,318.4z M109.4,230.6c-21.6,0-39.1,17.5-39.1,39s17.5,39,39.1,39s39.1-17.5,39.1-39
			S130.9,230.6,109.4,230.6z"/>
	</g>
	<g>
		<path class="st1" d="M290,360.4c-14.2,0-25.9-11.6-25.9-25.9s11.7-25.9,25.9-25.9s25.9,11.6,25.9,25.9S304.2,360.4,290,360.4z
			 M290,318.4c-9,0-16.3,7.3-16.3,16.3c0,9,7.3,16.2,16.3,16.2s16.3-7.3,16.3-16.3C306.3,325.6,298.8,318.4,290,318.4z"/>
	</g>
	<g>
		<path class="st1" d="M272.4,133.2c-12.6,0-22.9-10.2-22.9-22.9s10.2-22.9,22.9-22.9s22.9,10.2,22.9,22.9S285.1,133.2,272.4,133.2z
			 M272.4,97.2c-7.3,0-13.2,6-13.2,13.2c0,7.3,6,13.2,13.2,13.2c7.2,0,13.2-6,13.2-13.2C285.7,103.1,279.8,97.2,272.4,97.2z"/>
	</g>
	<g>
		<path class="st1" d="M352.5,245c-17.6,0-31.9-18.9-31.9-42s14.3-42,31.9-42c17.6,0,31.9,18.9,31.9,42S370.1,245,352.5,245z
			 M352.5,170.5c-12.3,0-22.3,14.5-22.3,32.5s10,32.5,22.3,32.5s22.3-14.5,22.3-32.5S364.7,170.5,352.5,170.5z"/>
	</g>
	<g>
		<path class="st1" d="M223.8,231.9c-19.6,0-35.5-15.9-35.5-35.4s15.9-35.4,35.5-35.4s35.5,15.9,35.5,35.4S243.3,231.9,223.8,231.9z
			 M223.8,170.5c-14.2,0-25.9,11.6-25.9,25.9c0,14.2,11.7,25.9,25.9,25.9s25.9-11.6,25.9-25.9C249.6,182.1,238,170.5,223.8,170.5z"
			/>
	</g>
	<g>
		<path class="st1" d="M209.3,57.5c-21.2,0-38-10.8-38-24.6s16.6-24.6,38-24.6s38,10.8,38,24.6S230.6,57.5,209.3,57.5z M209.3,17.9
			c-16.7,0-28.3,7.9-28.3,15s11.7,15,28.3,15s28.3-7.9,28.3-15S225.9,17.9,209.3,17.9z"/>
	</g>
	<g>
		<path class="st1" d="M188.2,388.2c-18.4,0-39.7-3.9-39.7-15s21.5-15,39.7-15s39.7,3.9,39.7,15S206.5,388.2,188.2,388.2z
			 M158.7,373.1c3,2.3,13.8,5.5,29.5,5.5s26.5-3.2,29.5-5.5c-3-2.3-13.8-5.5-29.5-5.5S161.7,370.8,158.7,373.1z"/>
	</g>
	<g>
		<path class="st1" d="M26.4,196.9c-9.9,0-17.4-13.2-17.4-30.7s7.5-30.7,17.4-30.7s17.4,13.3,17.4,30.8S36.3,196.9,26.4,196.9z
			 M26.4,145.3c-2.8,0-7.8,8-7.8,21c0,13.1,5.1,21,7.8,21s7.8-8,7.8-21C34.2,153.2,29.1,145.3,26.4,145.3z"/>
	</g>
	<g>
		<path class="st1" d="M128.7,13.9c-3.4,1.3-6.7,2.7-10,4.1L128.7,13.9z"/>
		<path class="st1" d="M342.7,340.2c-2.7,2.7-5.5,5.4-8.3,7.9L342.7,340.2z"/>
		<path class="st1" d="M187.6,303c-3.3,10-9.1,18.9-17.7,25.1c-9,6.5-20.3,8.8-31.1,9.2c-20.2,0.7-40.9-5.5-60.7,0.3
			c-5.5,1.6-10.4,4.2-14.3,8.1c-2.7-2.5-5.2-5-7.6-7.6c3.9-3.9,8.8-7,14-9.2c19.5-8,40.4-3.2,60.6-2.6c10.1,0.3,20.8-0.2,29.8-5.2
			c8.3-4.5,13.7-12.4,16.7-21.1c6.3-18.6,4-41.4-4.7-58.9c-4.5-9-10.9-16.7-19.4-22.2c-8.1-5.3-17.5-8.2-27.1-9.6
			c-42.5-6-81.5,17.8-123,21c-0.5-3.5-1-7.1-1.3-10.7c24.4-1.6,47.6-10.7,71.2-16.6c20.5-5.2,42.6-7.6,63.5-2.7
			c21.2,5,38.7,19.2,47.4,39.3C191.9,259.1,194.3,282.9,187.6,303z"/>
		<path class="st1" d="M312.6,35.3c-8,3.7-15.8,8.1-23.5,12.5c-10.6,6-21,12.3-31.9,17.8c-20,10.3-41.7,18-64.5,17.5
			c-21.5-0.4-41.9-8.9-55.3-26c-9.1-11.5-14.6-25.1-18.9-39c3.3-1.4,6.6-2.9,10-4.1c3.7,13,8.7,25.7,16.9,36.2
			c6.1,7.7,14.1,14.1,23.3,17.7c9.6,3.7,19.9,4.9,30.1,4.4c22.3-1.1,42.7-10.3,62-20.8c10.8-6,21.3-12.4,32.2-18.1
			c2.9-1.5,5.9-3.1,8.9-4.6C305.6,30.6,309.1,32.9,312.6,35.3z"/>
		<path class="st1" d="M360.4,81c-0.1,12.8-1.7,25.7-6.4,37.4c-7.1,17.7-21.8,31.1-40.9,34.7c-19.1,3.5-38.4-1.4-56.9-5.5
			c-17.8-3.9-37-8.1-54.8-2.7c-10.2,3.2-19.1,9.7-27.3,16.3c-9.4,7.4-18.8,14.8-29.9,19.5c-10.7,4.4-22.8,6-33.8,1.5
			c-9.5-3.9-16.6-11.2-22.4-19.6c-5.7-8.1-9.8-17.1-14.9-25.7c-5.2-8.9-11.3-17.1-18.9-24.1c-7-6.6-15.4-12.1-24.6-14.7
			c-0.2-0.1-0.5-0.1-0.7-0.2c2-3.2,3.9-6.4,6.1-9.5c5.4,1.8,10.5,4.3,15.4,7.5c9.1,6,16.7,13.7,23.3,22.3c6.2,8,10.9,16.8,15.8,25.7
			c4.4,8.1,9.2,16.5,16.2,22.8c7.2,6.5,16.7,9,26.3,6.8c22.7-5,37.2-25.4,57.5-35.1c18.6-8.9,39-7.2,58.6-3.3
			c18.3,3.6,36.3,9.4,54.9,8.7c8.4-0.3,16.5-2.4,23.7-6.9c7.2-4.5,12.5-11,16.1-18.6c7.3-15.1,7.6-33.6,6.6-50.5
			C353.2,71.6,356.9,76.3,360.4,81z"/>
		<path class="st1" d="M377.2,292.9c-1.8,3.4-3.6,6.7-5.6,10c-6.6-7.2-12.2-15.6-19.6-22c-6.6-5.7-15.6-10.6-24.2-10
			c-7.8,0.6-13.1,7.9-13.5,15.9c-0.4,10.4,4.8,19.3,10.9,27.4c6.3,8.6,12.9,16.5,17.4,26.1c-2.7,2.7-5.5,5.4-8.3,7.9
			c-1.1-3-2.6-5.9-4.1-8.7c-5.8-10-14.1-18.3-20-28.3c-5.4-9.3-8.3-20.1-6-30.7c2.2-9.8,9.8-18.1,19.8-20c10.3-2,20.7,2,29.2,7.7
			c8.7,5.9,14.9,13.9,21.6,21.8C375.7,291,376.5,291.9,377.2,292.9z"/>
		<path class="st1" d="M395.8,159.1c-1.4-0.6-2.9-1.2-4.3-1.8c-10.1-3.2-21-3-31.5-1.3c-11,1.6-22.4,4.1-32.9,7.7
			c-4.5,1.5-9,3.7-12.4,7.2c-3.6,3.8-5.5,8.9-6.7,13.8c-2.2,9.1-2.9,18.4-4.7,27.6c-1.9,9-4.3,17.9-8.5,26.2
			c-3.8,7.6-9.6,14.7-17.2,18.9c-10.6,5.8-22.2,4.8-33.8,3.8c-9.1-0.8-19.4-0.9-26.2,5.5c-2.7,2.6-4.1,5.5-3.4,9.4
			c0.9,4.8,4.1,9.1,7.2,12.7c12.7,14.7,30.8,24.8,38.3,43.8c8.5,21.6-2.9,44.4-15.1,62.4c-5,1.1-10,2.1-15.2,2.8
			c5.4-7.3,10.5-14.9,14.7-23c5-9.5,8.8-20.4,7.2-31.2c-1.3-9.5-6.8-17.1-13.4-23.8c-6.9-7-14.6-13-21.5-20.1
			c-7.5-7.9-15.4-18.2-13-29.9c2-9.8,11.6-16.1,20.7-18.4c11.7-3.1,23.4,0.4,35.2-0.1c9.1-0.4,16.2-4.1,21.6-11.1
			c1.9-2.4,4.1-6.6,5.6-9.9c1.4-3.4,2.9-7.9,3.9-12c2.3-8.7,3.6-17.5,5-26.5c1.7-10.9,4.1-22.7,13-30.2c8.7-7.5,20.2-10,31.1-12.6
			c11.2-2.7,22.8-4.9,34.4-4.9c6.2,0,12.5,0.7,18.5,2.5C393.8,150.7,394.8,154.9,395.8,159.1z"/>
	</g>
</g>
<g class="st2">
	<ellipse class="st3" cx="203.1" cy="180.7" rx="170.3" ry="170.1"/>
</g>
</svg>
