<?xml version="1.0" encoding="utf-8"?>
<!-- Generator: Adobe Illustrator 25.2.1, SVG Export Plug-In . SVG Version: 6.00 Build 0)  -->
<svg version="1.1" id="Layer_1" xmlns="http://www.w3.org/2000/svg" xmlns:xlink="http://www.w3.org/1999/xlink" x="0px" y="0px"
	 viewBox="0 0 400 400" style="enable-background:new 0 0 400 400;" xml:space="preserve">
<style type="text/css">
	.st0{fill:#C2ADBF;}
	.st1{fill:#B59EB3;}
	.st2{opacity:0.55;}
	.st3{fill:#D3C2D1;}
</style>
<g>
	<path class="st0" d="M396.4,195.9c0,32.4-8,63-22.1,89.9c-1.7,3.3-3.5,6.5-5.4,9.7c-7.9,13.2-17.4,25.4-28.1,36.3
		c-2.6,2.6-5.3,5.2-8,7.7c-24.2,22-54,37.9-87,45.4c-4.8,1.1-9.7,2-14.7,2.7c-9.3,1.4-18.8,2.1-28.4,2.1
		c-51.3,0-97.9-19.9-132.6-52.5c-2.6-2.4-5-4.9-7.4-7.4c-26.9-28.1-45.4-64.3-51.5-104.5c-0.5-3.4-1-6.9-1.3-10.4
		C9.3,208.5,9,202.2,9,195.9c0-36.4,10-70.4,27.5-99.5c1.9-3.1,3.8-6.2,5.9-9.2C62.5,57.6,90.6,33.8,123.6,19c3.2-1.4,6.4-2.8,9.7-4
		c21.6-8.3,45-12.8,69.4-12.8c36,0,69.8,9.8,98.7,27c3.5,2.1,6.9,4.3,10.3,6.6c13,8.9,24.9,19.3,35.4,31.1
		c3.8,4.3,7.5,8.7,10.9,13.3c14.1,18.9,24.8,40.4,31.3,63.6c1.1,4,2.1,8.1,3,12.2C395,168.8,396.4,182.2,396.4,195.9z"/>
</g>
<g>
	<g>
		<path class="st1" d="M121,142.5c-16.7,0-30.3-13.6-30.3-30.3s13.6-30.3,30.3-30.3s30.3,13.6,30.3,30.3S137.8,142.5,121,142.5z
			 M121,91.1c-11.6,0-21,9.4-21,21s9.4,21,21,21s21-9.4,21-21S132.6,91.1,121,91.1z"/>
	</g>
	<g>
		<path class="st1" d="M114.6,310.5c-26.1,0-47.3-21.2-47.3-47.3c0-26.1,21.2-47.3,47.3-47.3s47.3,21.2,47.3,47.3
			C161.9,289.3,140.7,310.5,114.6,310.5z M114.6,225.3c-20.9,0-37.9,17-37.9,37.9c0,20.9,17,37.9,37.9,37.9s37.9-17,37.9-37.9
			C152.5,242.3,135.5,225.3,114.6,225.3z"/>
	</g>
	<g>
		<path class="st1" d="M289.7,351.3c-13.8,0-25.1-11.3-25.1-25.1s11.3-25.1,25.1-25.1c13.8,0,25.1,11.3,25.1,25.1
			S303.5,351.3,289.7,351.3z M289.7,310.5c-8.7,0-15.8,7.1-15.8,15.8S281,342,289.7,342s15.8-7.1,15.8-15.8S298.3,310.5,289.7,310.5
			z"/>
	</g>
	<g>
		<path class="st1" d="M272.7,130.8c-12.2,0-22.2-9.9-22.2-22.2s9.9-22.2,22.2-22.2s22.2,9.9,22.2,22.2S285,130.8,272.7,130.8z
			 M272.7,95.8c-7.1,0-12.8,5.8-12.8,12.8c0,7.1,5.8,12.8,12.8,12.8s12.8-5.8,12.8-12.8C285.6,101.5,279.8,95.8,272.7,95.8z"/>
	</g>
	<g>
		<path class="st1" d="M350.3,239.3c-17.1,0-30.9-18.3-30.9-40.8s13.9-40.8,30.9-40.8c17.1,0,30.9,18.3,30.9,40.8
			S367.4,239.3,350.3,239.3z M350.3,167c-11.9,0-21.6,14.1-21.6,31.5s9.7,31.5,21.6,31.5s21.6-14.1,21.6-31.5S362.2,167,350.3,167z"
			/>
	</g>
	<g>
		<path class="st1" d="M225.5,226.5c-19,0-34.4-15.4-34.4-34.4s15.4-34.4,34.4-34.4s34.4,15.4,34.4,34.4S244.5,226.5,225.5,226.5z
			 M225.5,167c-13.8,0-25.1,11.3-25.1,25.1c0,13.8,11.3,25.1,25.1,25.1c13.8,0,25.1-11.3,25.1-25.1C250.6,178.2,239.3,167,225.5,167
			z"/>
	</g>
	<g>
		<path class="st1" d="M211.5,57.3c-20.6,0-36.8-10.5-36.8-23.9s16.1-23.9,36.8-23.9s36.8,10.5,36.8,23.9S232.1,57.3,211.5,57.3z
			 M211.5,18.8c-16.2,0-27.4,7.7-27.4,14.6s11.3,14.6,27.4,14.6s27.4-7.7,27.4-14.6S227.6,18.8,211.5,18.8z"/>
	</g>
	<g>
		<path class="st1" d="M191,378.2c-17.8,0-38.5-3.8-38.5-14.6S173.3,349,191,349s38.5,3.8,38.5,14.6S208.8,378.2,191,378.2z
			 M162.4,363.6c2.9,2.2,13.4,5.3,28.6,5.3s25.7-3.1,28.6-5.3c-2.9-2.2-13.4-5.3-28.6-5.3S165.3,361.4,162.4,363.6z"/>
	</g>
	<g>
		<path class="st1" d="M34.1,192.6c-9.6,0-16.9-12.8-16.9-29.8s7.3-29.8,16.9-29.8S51,145.9,51,162.9S43.7,192.6,34.1,192.6z
			 M34.1,142.5c-2.7,0-7.6,7.8-7.6,20.4c0,12.7,4.9,20.4,7.6,20.4c2.7,0,7.6-7.8,7.6-20.4C41.7,150.2,36.8,142.5,34.1,142.5z"/>
	</g>
	<g>
		<path class="st1" d="M133.3,15c-3.3,1.3-6.5,2.6-9.7,4L133.3,15z"/>
		<path class="st1" d="M340.8,331.7c-2.6,2.6-5.3,5.2-8,7.7L340.8,331.7z"/>
		<path class="st1" d="M190.4,295.6c-3.2,9.7-8.8,18.3-17.2,24.4c-8.7,6.3-19.7,8.5-30.2,8.9c-19.6,0.7-39.7-5.3-58.9,0.3
			c-5.3,1.6-10.1,4.1-13.9,7.9c-2.6-2.4-5-4.9-7.4-7.4c3.8-3.8,8.5-6.8,13.6-8.9c18.9-7.8,39.2-3.1,58.8-2.5
			c9.8,0.3,20.2-0.2,28.9-5c8-4.4,13.3-12,16.2-20.5c6.1-18.1,3.9-40.2-4.6-57.2c-4.4-8.7-10.6-16.2-18.8-21.5
			c-7.9-5.1-17-8-26.3-9.3c-41.2-5.8-79,17.3-119.3,20.4c-0.5-3.4-1-6.9-1.3-10.4c23.7-1.6,46.2-10.4,69-16.1
			c19.9-5,41.3-7.4,61.6-2.6c20.6,4.9,37.5,18.6,46,38.1C194.6,252.9,196.9,276,190.4,295.6z"/>
		<path class="st1" d="M311.7,35.7c-7.8,3.6-15.3,7.9-22.8,12.1c-10.3,5.8-20.4,11.9-30.9,17.3c-19.4,10-40.4,17.5-62.5,17
			c-20.8-0.4-40.6-8.6-53.6-25.2c-8.8-11.2-14.2-24.4-18.3-37.9c3.2-1.4,6.4-2.8,9.7-4c3.6,12.6,8.4,24.9,16.4,35.1
			c5.9,7.5,13.7,13.7,22.6,17.2c9.3,3.6,19.3,4.8,29.2,4.3c21.6-1.1,41.4-10,60.1-20.2c10.5-5.8,20.7-12,31.2-17.6
			c2.8-1.5,5.7-3,8.6-4.5C304.9,31.2,308.3,33.4,311.7,35.7z"/>
		<path class="st1" d="M358,80.1c-0.1,12.4-1.6,24.9-6.2,36.3c-6.9,17.2-21.1,30.2-39.7,33.7c-18.5,3.4-37.2-1.4-55.2-5.3
			c-17.3-3.8-35.9-7.9-53.1-2.6c-9.9,3.1-18.5,9.4-26.5,15.8c-9.1,7.2-18.2,14.4-29,18.9c-10.4,4.3-22.1,5.8-32.8,1.5
			c-9.2-3.8-16.1-10.9-21.7-19c-5.5-7.9-9.5-16.6-14.4-24.9c-5-8.6-11-16.6-18.3-23.4c-6.8-6.4-14.9-11.7-23.9-14.3
			c-0.2-0.1-0.5-0.1-0.7-0.2c1.9-3.1,3.8-6.2,5.9-9.2c5.2,1.7,10.2,4.2,14.9,7.3c8.8,5.8,16.2,13.3,22.6,21.6
			c6,7.8,10.6,16.3,15.3,24.9c4.3,7.9,8.9,16,15.7,22.1c7,6.3,16.2,8.7,25.5,6.6c22-4.9,36.1-24.7,55.8-34.1c18-8.6,37.8-7,56.8-3.2
			c17.7,3.5,35.2,9.1,53.2,8.4c8.1-0.3,16-2.3,23-6.7c7-4.4,12.1-10.7,15.6-18.1c7.1-14.7,7.4-32.6,6.4-49
			C351,71,354.6,75.5,358,80.1z"/>
		<path class="st1" d="M374.3,285.8c-1.7,3.3-3.5,6.5-5.4,9.7c-6.4-7-11.8-15.1-19-21.4c-6.4-5.5-15.1-10.3-23.5-9.7
			c-7.6,0.6-12.7,7.7-13.1,15.4c-0.4,10.1,4.7,18.7,10.6,26.6c6.1,8.3,12.5,16,16.9,25.3c-2.6,2.6-5.3,5.2-8,7.7
			c-1.1-2.9-2.5-5.7-4-8.4c-5.6-9.7-13.7-17.8-19.4-27.5c-5.2-9-8-19.5-5.8-29.8c2.1-9.5,9.5-17.6,19.2-19.4
			c10-1.9,20.1,1.9,28.3,7.5c8.4,5.7,14.4,13.5,20.9,21.2C372.8,283.9,373.6,284.8,374.3,285.8z"/>
		<path class="st1" d="M392.3,155.9c-1.4-0.6-2.8-1.2-4.2-1.7c-9.8-3.1-20.4-2.9-30.5-1.3c-10.7,1.6-21.7,4-31.9,7.5
			c-4.4,1.5-8.7,3.6-12,7c-3.5,3.7-5.3,8.6-6.5,13.4c-2.1,8.8-2.8,17.9-4.6,26.8c-1.8,8.7-4.2,17.4-8.2,25.4
			c-3.7,7.4-9.3,14.3-16.7,18.3c-10.3,5.6-21.5,4.7-32.8,3.7c-8.8-0.8-18.8-0.9-25.4,5.3c-2.6,2.5-4,5.3-3.3,9.1
			c0.9,4.7,4,8.8,7,12.3c12.3,14.3,29.9,24.1,37.1,42.5c8.2,21-2.8,43.1-14.6,60.6c-4.8,1.1-9.7,2-14.7,2.7
			c5.2-7.1,10.2-14.5,14.3-22.3c4.8-9.2,8.5-19.8,7-30.3c-1.3-9.2-6.6-16.6-13-23.1c-6.7-6.8-14.2-12.6-20.8-19.5
			c-7.3-7.7-14.9-17.7-12.6-29c1.9-9.5,11.2-15.6,20.1-17.9c11.3-3,22.7,0.4,34.1-0.1c8.8-0.4,15.7-4,20.9-10.8
			c1.8-2.3,4-6.4,5.4-9.6c1.4-3.3,2.8-7.7,3.8-11.6c2.2-8.4,3.5-17,4.8-25.7c1.6-10.6,4-22,12.6-29.3c8.4-7.3,19.6-9.7,30.2-12.2
			c10.9-2.6,22.1-4.8,33.4-4.8c6,0,12.1,0.7,17.9,2.4C390.4,147.7,391.4,151.8,392.3,155.9z"/>
	</g>
</g>
<g class="st2">
	<circle class="st3" cx="204.6" cy="166.4" r="154.6"/>
</g>
</svg>
