<?xml version="1.0" encoding="utf-8"?>
<!-- Generator: Adobe Illustrator 25.2.1, SVG Export Plug-In . SVG Version: 6.00 Build 0)  -->
<svg version="1.1" id="Layer_1" xmlns="http://www.w3.org/2000/svg" xmlns:xlink="http://www.w3.org/1999/xlink" x="0px" y="0px"
	 viewBox="0 0 400 400" style="enable-background:new 0 0 400 400;" xml:space="preserve">
<style type="text/css">
	.st0{fill:#0A9396;}
	.st1{fill:#219B92;}
	.st2{opacity:0.18;fill:#66C6C4;enable-background:new    ;}
</style>
<g>
	<path class="st0" d="M399.2,200.6c0,9-0.6,17.8-1.7,26.4c-2.3,16.9-6.6,33-12.8,48.3c-1.5,3.7-3.1,7.4-4.8,11
		c-18.9,39.6-50.5,72-89.5,92c-3.2,1.6-6.5,3.2-9.8,4.6c-16.4,7.2-33.9,12.3-52.1,15c-3.8,0.5-7.6,1-11.4,1.3
		c-5.7,0.5-11.4,0.7-17.2,0.7c-16.9,0-33.3-2.1-49-6.1c-3.4-0.8-6.9-1.9-10.2-2.9c-38.5-11.9-71.9-35.3-96.5-66.1
		c-7.1-9-13.5-18.5-19-28.6c-8-14.6-14.3-30.5-18.4-47c-1.4-5.6-2.6-11.3-3.5-17.1c-1.6-10.3-2.5-20.9-2.5-31.7
		c0-3.7,0.1-7.4,0.3-11.1c0.2-3.4,0.4-6.7,0.8-10c0-0.5,0.1-0.9,0.2-1.4c2.6-23.4,9.3-45.5,19.2-65.6c23.3-47,64.6-83.5,114.9-100.5
		c3.3-1.1,6.8-2.2,10.2-3.2c8.4-2.4,17.1-4.1,25.9-5.4c3.7-0.5,7.5-0.9,11.3-1.2l0,0c5.5-0.5,11-0.7,16.6-0.7
		c21.1,0,41.5,3.3,60.6,9.4l0,0c10.4,3.3,20.5,7.5,30,12.3c21.8,11.2,41.3,26.2,57.5,44.2c2.5,2.7,4.8,5.5,7.1,8.3
		c26,32.3,42.2,72.9,43.8,117.3C399.1,195.5,399.2,198,399.2,200.6z"/>
</g>
<g>
	<g>
		<path class="st1" d="M1.7,179.5c-0.4,3.3-0.6,6.7-0.8,10c7.6,3.3,16.5,3.4,24.5,1.4c10.1-2.4,18.8-8.1,26.2-15.2
			c7.6-7.2,13.8-15.7,20.5-23.9c7.1-8.6,14.8-17,22.9-24.7c7.9-7.6,16.3-14.8,25.1-21.3c8.4-6.2,17.5-11.9,27.4-15.2
			c16.3-5.5,35.7-3.7,46.7,10.2c4.8,6.1,6.6,14.7,4.6,22.8c-2.3,9.3-7.9,17.4-14.5,24.1c-14.3,14.3-34,23.2-52.4,30.8
			c-19.4,8-39.7,15.1-57.9,25.9c-30,18-60.1,54.9-49,91.9c0.4,1.2,0.8,2.5,1.2,3.7c3.7,9.9,10,18.2,17.8,24.9
			c6.8,5.8,14.7,10.2,23.2,13.3c21,7.4,44.7,4.7,65.2-2.6c32.7-11.6,60-34.6,78.9-63.4c18.2-27.8,28.7-60.9,29.4-94.2
			c0.4-16.6-1.7-33.3-6.6-49.2c-2.6-8.5-6.2-16.7-9.9-24.8c-4.2-9.2-8.5-18.5-10.5-28.5c-1.6-8.2-1-17.2,4.6-23.6
			c4.4-5,10-7,16.5-6.9c0.8,0,1.6,0,2.4,0.1c0.4,0,0.9,0.1,1.3,0.1c0.1,0,0.1,0,0.1,0h0.1c0.1,0,0.1,0,0.2,0c2,0.3,4,0.8,5.9,1.4
			c3.5,1.1,6.2,2.4,9.6,4.5c6,3.8,11.1,9,14.3,15.4c9.8,19.3,7.2,42.4,7.2,63.2c-0.1,18.6,2.1,42.2,22.2,49.9
			c16.5,6.3,35.7-3.3,45.2-17c12.3-18,9.5-42.3,4.9-62.4c-1.1-4.8-2.6-10.2-1.7-15.2c0.6-4.1,2.8-6.6,5.9-8.3
			c0.8-0.4,1.6-0.8,2.6-1.1c-2.3-2.9-4.6-5.7-7.1-8.3c-4.8,2.6-8.7,6.8-10.6,12c-3.5,9.5,0.2,19.8,2.1,29.2
			c3.2,16.1,4.7,36.1-5.7,49.8c-3.9,5-9.8,9.2-15.7,11.2c-3.5,1.1-6,1.6-9.5,1.5c-0.7,0-1.5-0.1-2.3-0.1c-0.1,0-0.4-0.1-0.5-0.1l0,0
			c-0.3-0.1-0.5-0.1-0.8-0.2c-1.6-0.3-3.4-0.9-4.3-1.4c-6.3-3.2-10.1-9.4-11.9-16.5c-2.2-8-2.1-16.5-2.1-24.7
			c0.1-19.1,1.5-39.1-4.7-57.5c-2.7-7.7-6.4-14.9-12.2-20.8c-5.1-5.2-11.4-9.3-18.2-12c-12.7-5.2-28.1-4.9-38.6,4.6
			c-13.7,12.6-11.4,32.3-5.6,48c3.2,8.6,7.3,17,11.1,25.4c2.6,5.9,5,12.8,6.9,19.3c3.8,13.9,5.4,27.3,5.1,41.7
			c-0.4,28.2-8.4,56.4-22.6,81c-14,24.5-34.1,45.3-58.9,58.9c-29.1,15.8-69.6,23.9-97.2,0.8c-12-10.1-19-24.4-18.2-40
			c0.8-15.2,9-30,19-41.6c11.4-13.1,25.5-22.5,41.1-29.9c16.6-7.9,33.9-14.1,50.7-21.4c16.6-7.2,33.3-15.7,46.5-28.4
			c12.7-12.2,22.8-30,18.5-48.2c-3.8-15.8-18.4-26.6-33.9-29.8c-18.2-3.8-36.3,2.8-51.7,12.4c-16.5,10.4-31.5,23.8-45,37.8
			c-6.6,6.9-12.8,14.2-18.7,21.6c-5.8,7.2-11.4,14.4-18.4,20.5c-10.4,9.1-26.1,15-38.7,8c0.3-15.8,5.5-30.7,14.2-44
			C26.6,120,39.6,108,53.7,98.2c15-10.2,31-18,47.6-24.5c17.2-6.7,35.8-14.6,43.5-32.7c4.4-10.6,4.1-21.6,1.4-32.4
			c-3.4,0.9-6.8,2-10.2,3.2c2.1,8.3,2.5,17.1-0.8,25.1c-7.2,16.8-27.1,22.7-42.6,28.9c-26.1,10.4-52.2,25.6-71.5,46.6
			c-10,20.2-16.7,42.3-19.2,65.6L1.7,179.5z"/>
		<path class="st1" d="M399.2,200.6c0,9-0.6,17.8-1.7,26.4c-3.1,4.9-6.9,9.5-11.3,13.4c-14.3,12.4-32.7,15.7-50.8,18.6
			c-17.8,2.9-35.5,7.1-52.1,14.6c-16.2,7.4-31.2,17.5-42.8,31.1c-11,12.9-18.6,28.7-21.4,45.4c-2.5,15.1,0.1,31.1,7.3,44.2
			c0.6,1.2,1.3,2.4,2.1,3.5c-3.8,0.5-7.6,1-11.4,1.3c-3.1-5.8-5.6-11.8-7.1-18.4c-4.8-19.9-1.4-40.7,7.2-59.1
			c8.7-18.7,23.2-34.2,40.1-45.7c17.4-11.7,37.3-19.2,57.7-23.9c19.9-4.5,42.5-4.4,59.9-16.3c14.2-9.7,21.1-26.4,24.2-43
			C399.1,195.5,399.2,198,399.2,200.6z"/>
	</g>
	<g>
		<path class="st1" d="M358.2,197.3c-4.3-1.3-9.1-1.6-13.6-2.3c-4.9-0.7-10-1.4-14.9-2.2c-10.2-1.5-20.3-3.4-30.6-4.3
			c-5-0.5-10.2-0.1-14.8,2.1c-3.7,1.7-6.7,4.5-9.2,7.7c-5,6.6-8.2,14.5-12,21.8c-4.1,7.8-8.4,15.4-13.1,22.9
			c-18.5,30.4-40.8,58.2-66.4,82.9c-12.7,12.1-27.7,23.3-35.7,39.2c-4.1,8.1-6.3,16.9-7.3,25.7c3.4,1,6.8,2,10.2,2.9
			c0.4-4.3,1.1-8.7,2.4-13c2.1-7.7,5.7-14.7,10.8-20.9c5.5-6.6,11.8-12.2,18.1-18c18.9-17.3,36.3-36.3,51.9-56.7
			c1.1-0.3,2.1-1.1,2.8-2.5c16.3-30.4,51.8-41.5,83-49.2c9.4-2.4,18.8-4.5,28.2-7c4.6-1.2,9.4-2.6,13.9-4.2c4.2-1.5,8.4-4.1,9.7-8.7
			C373.7,205.1,365.3,199.5,358.2,197.3z M361.2,211.1c-0.1,0.1-0.2,0.2-0.2,0.3c-0.1,0-0.9,0.6-0.9,0.6c-3,1.5-7.9,2.7-11.6,3.7
			c-9.1,2.6-18.2,4.7-27.4,6.9c-20.1,4.8-41.1,10.7-59,21.1c4.7-7.9,9.2-16.1,13.3-24.3c3.1-6.1,6-13.8,11.1-17.9
			c6.5-5.1,16.5-2.1,23.8-1c9.7,1.4,19.3,2.8,29.1,4.2c4.6,0.6,9.4,1.1,13.9,2.1c1.1,0.2,3.3,0.8,3.8,1c0.7,0.3,1.4,0.6,2.1,1
			c0.3,0.2,0.6,0.4,0.9,0.6c0.1,0.1,0.2,0.2,0.3,0.2l0,0c0.1,0.1,0.1,0.1,0.3,0.3c0.2,0.2,0.3,0.4,0.5,0.6c0,0,0,0,0,0.1
			C361,210.7,361.1,210.9,361.2,211.1z M361.3,210.9L361.3,210.9L361.3,210.9L361.3,210.9C361.2,210.3,361.5,210.5,361.3,210.9z"/>
	</g>
	<g>
		<path class="st1" d="M202.3,170.9c-6.6,25.8-31,41.9-53.8,52.8c-13.4,6.4-27.3,11.8-40.4,18.6c-13.2,6.8-26.4,15.2-35.5,27.3
			c-8,10.7-11.3,25.9-2.9,37.5c7.1,9.8,19.2,14.8,31.2,14.9c13.9,0.1,26.4-7.3,36.5-16.4c10.6-9.6,19.4-21.2,28.2-32.3
			c18.4-23.4,36-48.7,43.3-77.9c0.9-3.6,1.6-7.2,2.2-10.8c0.4-2.8-0.7-5.7-3.7-6.5c-2.5-0.7-6.1,0.8-6.5,3.7
			c-4.3,28.2-19.2,52.9-36.1,75.4c-8.3,11-17,22-26.2,32.3c-8.3,9.3-18.4,18.5-30.9,21.4c-0.6,0.1-1.2,0.3-1.9,0.4
			c-0.3,0-0.5,0.1-0.8,0.1c0.2,0,0.8-0.1-0.2,0c-1.3,0.1-2.8,0.2-4.2,0.2c-3,0-4.2-0.2-6.9-0.8c-1.2-0.3-2.5-0.6-3.7-1.1
			c-0.6-0.2-1.2-0.4-1.7-0.7c0.6,0.3-1-0.5-1.2-0.6c-1.1-0.6-2.2-1.2-3.3-1.9c-1.2-0.8-1.2-0.8-2.5-2c-0.9-0.8-1.7-1.6-2.5-2.7
			c-0.4-0.5,0,0,0,0c-0.2-0.3-0.4-0.5-0.6-0.8c-0.4-0.6-0.7-1.1-1-1.7c-0.2-0.4-0.5-0.9-0.7-1.3c0.3,0.7-0.2-0.7-0.3-0.9
			c-0.2-0.6-0.4-1.1-0.5-1.7c-0.1-0.3-0.3-1.6-0.3-1.4c-0.8-6.3,1.7-12.1,5.4-17.3c7.7-11,20.5-18.4,32.1-24.6
			c12.8-6.7,26-11.9,39-18c22.9-10.8,47-26.1,57.4-50.3c1.3-3.2,2.5-6.3,3.3-9.7C214.1,167.2,204,164.4,202.3,170.9L202.3,170.9z"/>
	</g>
	<g>
		<path class="st1" d="M151,131.5c-23.5,9.6-45.9,21.6-66.9,35.7c-18.5,12.6-36.4,26.5-51.8,42.9c-10.9,11.6-19.5,24.8-25.7,39.3
			c-1.4-5.6-2.6-11.3-3.5-17.1c1.5-2.9,3.3-5.8,5-8.5c6.4-9.8,14-18.7,22.3-26.9c16.6-16.4,35.5-30.7,55-43.2
			c19.9-12.8,40.8-23.5,62.7-32.3c2.7-1,5.8,1.1,6.5,3.7C155.4,128,153.6,130.4,151,131.5z"/>
	</g>
	<g>
		<path class="st1" d="M384.7,275.3c-1.5,3.7-3.1,7.4-4.8,11c-0.6,0.1-1.2,0.1-1.7,0.2c-25.1,3.3-49.7,13.3-69.7,28.9
			c-5.2,4.1-10.4,8.6-14,14.3c-3.4,5.2-5.5,11.2-6.2,17.5c-1.3,10.4,0.2,20.9,2.2,31.2c-3.2,1.6-6.5,3.2-9.8,4.6
			c-2.9-14.2-5-28.9-1.7-43.1c3.5-15,13.8-25.6,25.7-34.7c11.2-8.4,23.7-15.1,36.8-20.2C355.4,279.7,370,276.4,384.7,275.3z"/>
	</g>
	<g>
		<path class="st1" d="M260.5,10.7L260.5,10.7c-1.4,0.1-2.9,0.2-4.3,0.2c-15.4,0.6-30.9,0.5-46.3-0.4c-7.1-0.4-14.9-0.5-21.3-4
			c-2.2-1.1-3.9-2.6-5.4-4.4l0,0c-3.8,0.3-7.5,0.7-11.3,1.2c0.9,2.3,2.3,4.3,3.9,6.3c4.3,5.2,10.9,8.2,17.5,9.6
			c7.3,1.5,14.8,1.7,22.2,2.2c7.7,0.4,15.4,0.5,23.2,0.5s15.5-0.3,23.4-0.7c3.3-0.1,6.7-0.3,9.9,0.6c2.8,0.8,5,2.5,7.1,4.4
			c8.8,8.4,15.6,19.7,20,31c5.2,13.5,7.4,27.8,6.3,42.2c-0.2,2.9,2.6,5.2,5.2,5.2c3,0,5-2.5,5.2-5.2c2.1-26.2-6.5-52.8-22.8-73.4
			c-0.8-0.9-1.5-2-2.4-2.9L260.5,10.7z"/>
	</g>
</g>
<path class="st2" d="M177,11.7C269.2-6,358.3,54.4,375.9,146.5c8.1,42.6-0.4,84.4-21,118.9c-24,40.2-130.6,31.7-219.7-30.7
	c-79.1-55.4-89.4-123-60.6-160.3C99.1,42.9,134.7,19.8,177,11.7z"/>
<path class="st2" d="M192.6,24.7C266.7,10.5,338.2,59,352.4,133c6.5,34.2-0.3,67.8-16.8,95.5c-19.3,32.3-104.9,25.5-176.5-24.7
	C95.5,159.3,87.2,105,110.4,75.1C130,49.8,158.7,31.2,192.6,24.7z"/>
<path class="st2" d="M237.6,393.4C134.4,409.8,28.8,340.4,7,238.3c-14.7-68.8,17.5-132.9,17.5-132.9s-35.4,110.4,76.4,215.5
	c118,110.8,258-0.4,258-0.4S324.7,379.6,237.6,393.4z"/>
</svg>
