<?xml version="1.0" encoding="utf-8"?>
<!-- Generator: Adobe Illustrator 25.2.1, SVG Export Plug-In . SVG Version: 6.00 Build 0)  -->
<svg version="1.1" id="Layer_1" xmlns="http://www.w3.org/2000/svg" xmlns:xlink="http://www.w3.org/1999/xlink" x="0px" y="0px"
	 viewBox="0 0 400 400" style="enable-background:new 0 0 400 400;" xml:space="preserve">
<style type="text/css">
	.st0{fill:#0A9396;}
	.st1{fill:#0B7C7C;}
	.st2{opacity:0.4;}
	.st3{fill:#1BB2B2;}
</style>
<g>
	<path class="st0" d="M395,200c0,8.7-0.6,17.3-1.7,25.7c-2.2,16.4-6.4,32.1-12.4,46.9c-1.5,3.6-3,7.2-4.7,10.7
		c-18.4,38.5-49.1,70-87,89.4c-3.1,1.6-6.3,3.1-9.5,4.5c-15.9,7-32.9,12-50.6,14.6c-3.7,0.5-7.4,1-11.1,1.3
		c-5.5,0.5-11.1,0.7-16.7,0.7c-16.4,0-32.4-2-47.6-5.9c-3.3-0.8-6.7-1.8-9.9-2.8c-37.4-11.6-69.9-34.3-93.8-64.2
		c-6.9-8.7-13.1-18-18.5-27.8c-7.8-14.2-13.9-29.6-17.9-45.7c-1.4-5.4-2.5-11-3.4-16.6c-1.6-10-2.4-20.3-2.4-30.8
		c0-3.6,0.1-7.2,0.3-10.8c0.2-3.3,0.4-6.5,0.8-9.7c0-0.5,0.1-0.9,0.2-1.4c2.5-22.7,9-44.2,18.7-63.8c22.6-45.8,62.7-81.3,111.6-97.8
		c3.2-1.1,6.6-2.1,9.9-3.1c8.2-2.3,16.6-4,25.2-5.2c3.6-0.5,7.3-0.9,11-1.2h0c5.3-0.5,10.7-0.7,16.1-0.7c20.5,0,40.3,3.2,58.9,9.1
		c0,0,0,0,0,0c10.1,3.2,19.9,7.3,29.2,12c21.2,10.9,40.1,25.5,55.9,43c2.4,2.6,4.7,5.3,6.9,8.1c25.3,31.4,41,70.9,42.6,114
		C394.9,195,395,197.5,395,200z"/>
</g>
<g>
	<g>
		<path class="st1" d="M8.7,179.5c-0.4,3.2-0.6,6.5-0.8,9.7c7.4,3.2,16,3.3,23.8,1.4c9.8-2.3,18.3-7.9,25.5-14.8
			c7.4-7,13.4-15.3,19.9-23.2c6.9-8.4,14.4-16.5,22.3-24c7.7-7.4,15.8-14.4,24.4-20.7c8.2-6,17-11.6,26.6-14.8
			c15.8-5.3,34.7-3.6,45.4,9.9c4.7,5.9,6.4,14.3,4.5,22.2c-2.2,9-7.7,16.9-14.1,23.4c-13.9,13.9-33,22.5-50.9,29.9
			c-18.9,7.8-38.6,14.7-56.3,25.2c-29.2,17.5-58.4,53.4-47.6,89.3c0.4,1.2,0.8,2.4,1.2,3.6c3.6,9.6,9.7,17.7,17.3,24.2
			c6.6,5.6,14.3,9.9,22.5,12.9c20.4,7.2,43.4,4.6,63.4-2.5c31.8-11.3,58.3-33.6,76.7-61.6c17.7-27,27.9-59.2,28.6-91.6
			c0.4-16.1-1.7-32.4-6.4-47.8c-2.5-8.3-6-16.2-9.6-24.1c-4.1-8.9-8.3-18-10.2-27.7c-1.6-8-1-16.7,4.5-22.9c4.3-4.9,9.7-6.8,16-6.7
			c0.8,0,1.6,0,2.3,0.1c0.4,0,0.9,0.1,1.3,0.1c0.1,0,0.1,0,0.1,0c0,0,0.1,0,0.1,0c0.1,0,0.1,0,0.2,0c1.9,0.3,3.9,0.8,5.7,1.4
			c3.4,1.1,6,2.3,9.3,4.4c5.8,3.7,10.8,8.7,13.9,15c9.5,18.8,7,41.2,7,61.4c-0.1,18.1,2,41,21.6,48.5c16,6.1,34.7-3.2,43.9-16.5
			c12-17.5,9.2-41.1,4.8-60.6c-1.1-4.7-2.5-9.9-1.7-14.8c0.6-4,2.7-6.4,5.7-8.1c0.8-0.4,1.6-0.8,2.5-1.1c-2.2-2.8-4.5-5.5-6.9-8.1
			c-4.7,2.5-8.5,6.6-10.3,11.7c-3.4,9.2,0.2,19.2,2,28.4c3.1,15.6,4.6,35.1-5.5,48.4c-3.8,4.9-9.5,8.9-15.3,10.9
			c-3.4,1.1-5.8,1.6-9.2,1.5c-0.7,0-1.5-0.1-2.2-0.1c-0.1,0-0.4-0.1-0.5-0.1c0,0,0,0,0,0c-0.3-0.1-0.5-0.1-0.8-0.2
			c-1.6-0.3-3.3-0.9-4.2-1.4c-6.1-3.1-9.8-9.1-11.6-16c-2.1-7.8-2-16-2-24c0.1-18.6,1.5-38-4.6-55.9c-2.6-7.5-6.2-14.5-11.9-20.2
			c-5-5.1-11.1-9-17.7-11.7c-12.3-5.1-27.3-4.8-37.5,4.5c-13.3,12.2-11.1,31.4-5.4,46.7c3.1,8.4,7.1,16.5,10.8,24.7
			c2.5,5.7,4.9,12.4,6.7,18.8c3.7,13.5,5.2,26.5,5,40.5c-0.4,27.4-8.2,54.8-22,78.7c-13.6,23.8-33.1,44-57.2,57.2
			c-28.3,15.4-67.6,23.2-94.5,0.8c-11.7-9.8-18.5-23.7-17.7-38.9c0.8-14.8,8.7-29.2,18.5-40.4c11.1-12.7,24.8-21.9,39.9-29.1
			c16.1-7.7,32.9-13.7,49.3-20.8c16.1-7,32.4-15.3,45.2-27.6c12.3-11.9,22.2-29.2,18-46.8c-3.7-15.4-17.9-25.9-32.9-29
			c-17.7-3.7-35.3,2.7-50.2,12.1c-16,10.1-30.6,23.1-43.7,36.7c-6.4,6.7-12.4,13.8-18.2,21c-5.6,7-11.1,14-17.9,19.9
			c-10.1,8.8-25.4,14.6-37.6,7.8c0.3-15.4,5.3-29.8,13.8-42.8c9.2-14,21.9-25.7,35.6-35.2c14.4-10,29.9-17.6,46.1-23.9
			c16.7-6.5,34.8-14.2,42.3-31.8c4.3-10.3,4-21,1.4-31.5c-3.3,0.9-6.6,1.9-9.9,3.1c2,8.1,2.4,16.6-0.8,24.4
			C131.5,57.2,112.2,63,97.1,69c-25.4,10.1-50.7,24.9-69.5,45.3c-9.7,19.6-16.2,41.1-18.7,63.8L8.7,179.5z"/>
		<path class="st1" d="M395,200c0,8.7-0.6,17.3-1.7,25.7c-3,4.8-6.7,9.2-11,13c-13.9,12.1-31.8,15.3-49.4,18.1
			c-17.3,2.8-34.5,6.9-50.6,14.2c-15.7,7.2-30.3,17-41.6,30.2c-10.7,12.5-18.1,27.9-20.8,44.1c-2.4,14.7,0.1,30.2,7.1,43
			c0.6,1.2,1.3,2.3,2,3.4c-3.7,0.5-7.4,1-11.1,1.3c-3-5.6-5.4-11.5-6.9-17.9c-4.7-19.3-1.4-39.6,7-57.4c8.5-18.2,22.5-33.2,39-44.4
			c16.9-11.4,36.3-18.7,56.1-23.2c19.3-4.4,41.3-4.3,58.2-15.8c13.8-9.4,20.5-25.7,23.5-41.8C394.9,195,395,197.5,395,200z"/>
	</g>
	<g>
		<path class="st1" d="M355.2,196.8c-4.2-1.3-8.8-1.6-13.2-2.2c-4.8-0.7-9.7-1.4-14.5-2.1c-9.9-1.5-19.7-3.3-29.7-4.2
			c-4.9-0.5-9.9-0.1-14.4,2c-3.6,1.7-6.5,4.4-8.9,7.5c-4.9,6.4-8,14.1-11.7,21.2c-4,7.6-8.2,15-12.7,22.3
			c-18,29.5-39.7,56.6-64.5,80.6c-12.3,11.8-26.9,22.6-34.7,38.1c-4,7.9-6.1,16.4-7.1,25c3.3,1,6.6,1.9,9.9,2.8
			c0.4-4.2,1.1-8.5,2.3-12.6c2-7.5,5.5-14.3,10.5-20.3c5.3-6.4,11.5-11.9,17.6-17.5c18.4-16.8,35.3-35.3,50.4-55.1
			c1.1-0.3,2-1.1,2.7-2.4c15.8-29.5,50.3-40.3,80.7-47.8c9.1-2.3,18.3-4.4,27.4-6.8c4.5-1.2,9.1-2.5,13.5-4.1c4.1-1.5,8.2-4,9.4-8.5
			C370.2,204.4,362.1,198.9,355.2,196.8z M358.1,210.2c-0.1,0.1-0.2,0.2-0.2,0.3c-0.1,0-0.9,0.6-0.9,0.6c-2.9,1.5-7.7,2.6-11.3,3.6
			c-8.8,2.5-17.7,4.6-26.6,6.7c-19.5,4.7-39.9,10.4-57.3,20.5c4.6-7.7,8.9-15.6,12.9-23.6c3-5.9,5.8-13.4,10.8-17.4
			c6.3-5,16-2,23.1-1c9.4,1.4,18.8,2.7,28.3,4.1c4.5,0.6,9.1,1.1,13.5,2c1.1,0.2,3.2,0.8,3.7,1c0.7,0.3,1.4,0.6,2,1
			c0.3,0.2,0.6,0.4,0.9,0.6c0.1,0.1,0.2,0.2,0.3,0.2l0,0c0.1,0.1,0.1,0.1,0.3,0.3c0.2,0.2,0.3,0.4,0.5,0.6c0,0,0,0,0,0.1
			C357.9,209.8,358,210,358.1,210.2z M358.2,210C358.2,210,358.2,210,358.2,210C358.2,210,358.2,210,358.2,210L358.2,210
			C358.1,209.4,358.4,209.6,358.2,210z"/>
	</g>
	<g>
		<path class="st1" d="M203.6,171.1c-6.4,25.1-30.1,40.7-52.3,51.3c-13,6.2-26.5,11.5-39.3,18.1c-12.8,6.6-25.7,14.8-34.5,26.5
			c-7.8,10.4-11,25.2-2.8,36.4c6.9,9.5,18.7,14.4,30.3,14.5c13.5,0.1,25.7-7.1,35.5-15.9c10.3-9.3,18.9-20.6,27.4-31.4
			c17.9-22.7,35-47.3,42.1-75.7c0.9-3.5,1.6-7,2.1-10.5c0.4-2.7-0.7-5.5-3.6-6.3c-2.4-0.7-5.9,0.8-6.3,3.6
			c-4.2,27.4-18.7,51.4-35.1,73.3c-8.1,10.7-16.5,21.4-25.5,31.4c-8.1,9-17.9,18-30,20.8c-0.6,0.1-1.2,0.3-1.8,0.4
			c-0.3,0-0.5,0.1-0.8,0.1c0.2,0,0.8-0.1-0.2,0c-1.3,0.1-2.7,0.2-4.1,0.2c-2.9,0-4.1-0.2-6.7-0.8c-1.2-0.3-2.4-0.6-3.6-1.1
			c-0.6-0.2-1.2-0.4-1.7-0.7c0.6,0.3-1-0.5-1.2-0.6c-1.1-0.6-2.1-1.2-3.2-1.8c-1.2-0.8-1.2-0.8-2.4-1.9c-0.9-0.8-1.7-1.6-2.4-2.6
			c-0.4-0.5,0,0,0,0c-0.2-0.3-0.4-0.5-0.6-0.8c-0.4-0.6-0.7-1.1-1-1.7c-0.2-0.4-0.5-0.9-0.7-1.3c0.3,0.7-0.2-0.7-0.3-0.9
			c-0.2-0.6-0.4-1.1-0.5-1.7c-0.1-0.3-0.3-1.6-0.3-1.4c-0.8-6.1,1.7-11.8,5.2-16.8c7.5-10.7,19.9-17.9,31.2-23.9
			c12.4-6.5,25.3-11.6,37.9-17.5c22.3-10.5,45.7-25.4,55.8-48.9c1.3-3.1,2.4-6.1,3.2-9.4C215.1,167.5,205.3,164.8,203.6,171.1
			L203.6,171.1z"/>
	</g>
	<g>
		<path class="st1" d="M153.8,132.8c-22.8,9.3-44.6,21-65,34.7c-18,12.2-35.4,25.8-50.3,41.7c-10.6,11.3-19,24.1-25,38.2
			c-1.4-5.4-2.5-11-3.4-16.6c1.5-2.8,3.2-5.6,4.9-8.3c6.2-9.5,13.6-18.2,21.7-26.1c16.1-15.9,34.5-29.8,53.5-42
			c19.3-12.4,39.7-22.8,60.9-31.4c2.6-1,5.6,1.1,6.3,3.6C158.1,129.4,156.3,131.8,153.8,132.8z"/>
	</g>
	<g>
		<path class="st1" d="M380.9,272.6c-1.5,3.6-3,7.2-4.7,10.7c-0.6,0.1-1.2,0.1-1.7,0.2c-24.4,3.2-48.3,12.9-67.7,28.1
			c-5.1,4-10.1,8.4-13.6,13.9c-3.3,5.1-5.3,10.9-6,17c-1.3,10.1,0.2,20.3,2.1,30.3c-3.1,1.6-6.3,3.1-9.5,4.5
			c-2.8-13.8-4.9-28.1-1.7-41.9c3.4-14.6,13.4-24.9,25-33.7c10.9-8.2,23-14.7,35.8-19.6C352.4,276.9,366.6,273.7,380.9,272.6z"/>
	</g>
	<g>
		<path class="st1" d="M260.2,15.4L260.2,15.4c-1.4,0.1-2.8,0.2-4.2,0.2c-15,0.6-30,0.5-45-0.4c-6.9-0.4-14.5-0.5-20.7-3.9
			c-2.1-1.1-3.8-2.5-5.2-4.3h0c-3.7,0.3-7.3,0.7-11,1.2c0.9,2.2,2.2,4.2,3.8,6.1c4.2,5.1,10.6,8,17,9.3c7.1,1.5,14.4,1.7,21.6,2.1
			c7.5,0.4,15,0.5,22.5,0.5c7.6,0,15.1-0.3,22.7-0.7c3.2-0.1,6.5-0.3,9.6,0.6c2.7,0.8,4.9,2.4,6.9,4.3c8.6,8.2,15.2,19.1,19.4,30.1
			c5.1,13.1,7.2,27,6.1,41c-0.2,2.8,2.5,5.1,5.1,5.1c2.9,0,4.9-2.4,5.1-5.1c2-25.5-6.3-51.3-22.2-71.3c-0.8-0.9-1.5-1.9-2.3-2.8
			L260.2,15.4z"/>
	</g>
</g>
<g class="st2">
	<path class="st3" d="M362.6,171.3c0,6.7-0.4,13.4-1.3,19.9c-1.7,12.7-4.9,24.9-9.6,36.4c-1.1,2.8-2.3,5.6-3.6,8.3
		c-14.2,29.9-38,54.3-67.4,69.3c-2.4,1.2-4.9,2.4-7.4,3.5C261,314.1,247.8,318,234,320c-2.8,0.4-5.7,0.8-8.6,1
		c-4.3,0.4-8.6,0.6-13,0.6c-12.7,0-25.1-1.6-36.9-4.6c-2.6-0.6-5.2-1.4-7.7-2.2c-29-9-54.2-26.6-72.8-49.8
		c-5.4-6.7-10.2-13.9-14.4-21.5c-6.1-11-10.8-22.9-13.9-35.4c-1.1-4.2-2-8.5-2.6-12.9c-1.2-7.8-1.9-15.7-1.9-23.9
		c0-2.8,0.1-5.6,0.2-8.4c0.1-2.5,0.3-5,0.6-7.5c0-0.4,0.1-0.7,0.1-1.1c2-17.6,7-34.2,14.5-49.4c17.5-35.5,48.6-63,86.5-75.9
		c2.5-0.9,5.1-1.6,7.7-2.4c6.3-1.8,12.8-3.1,19.5-4.1c2.8-0.4,5.6-0.7,8.5-0.9h0c4.1-0.4,8.3-0.5,12.5-0.5c15.9,0,31.3,2.5,45.7,7.1
		c0,0,0,0,0,0c7.9,2.5,15.4,5.6,22.7,9.3c16.4,8.4,31.1,19.7,43.3,33.3c1.8,2.1,3.6,4.1,5.4,6.3c19.6,24.3,31.8,55,33.1,88.4
		C362.6,167.5,362.6,169.4,362.6,171.3z"/>
</g>
</svg>
