<?xml version="1.0" encoding="utf-8"?>
<!-- Generator: Adobe Illustrator 25.2.1, SVG Export Plug-In . SVG Version: 6.00 Build 0)  -->
<svg version="1.1" id="Layer_1" xmlns="http://www.w3.org/2000/svg" xmlns:xlink="http://www.w3.org/1999/xlink" x="0px" y="0px"
	 viewBox="0 0 400 400" style="enable-background:new 0 0 400 400;" xml:space="preserve">
<style type="text/css">
	.st0{fill:#9B2226;}
	.st1{fill:#841A22;}
	.st2{fill:#56B35C;}
	.st3{fill:#0A9396;}
	.st4{fill:#B56437;}
	.st5{opacity:0.51;}
	.st6{fill:#AA2731;}
</style>
<g>
	<path class="st0" d="M312.6,245.6c-0.3,0.6-0.5,1.3-0.8,1.9c-2.4,5.6-5.2,10.8-8.3,15.8c-5.5,8.8-12,16.7-19.3,23.6
		c-3.9,3.7-8,7.1-12.3,10.2c-32.4,23.2-75.8,29.7-115.3,13.3c-20.8-8.6-37.9-22.4-50.3-39.2c-3-4-5.7-8.2-8.1-12.5
		c-2.9-5.1-5.4-10.5-7.5-15.9c-1.6-4.2-3-8.5-4.1-12.9c-2.8-10.8-4.1-22.1-3.7-33.5c0.2-5.6,0.7-11.2,1.7-16.8
		c1.1-6.2,2.7-12.4,4.8-18.5c0.8-2.2,1.6-4.5,2.5-6.7c1.5-3.6,3.1-7,4.9-10.3c4-7.5,8.7-14.5,14-20.8c8-9.6,17.5-17.8,27.8-24.3
		c5.3-3.4,10.9-6.3,16.7-8.7c7.6-3.3,15.6-5.8,23.8-7.4c22.4-4.5,46.3-2.6,69,6.8c22.4,9.2,40.4,24.5,53.1,43.1
		c5.6,8.3,10.2,17.3,13.6,26.7c5.2,14.2,7.6,29.5,7.1,44.9c-0.2,6.6-1,13.3-2.4,20C317.7,231.4,315.6,238.6,312.6,245.6z"/>
</g>
<g>
	<path class="st0" d="M320.5,183.3c-25.8-17-57-33.5-91.7-47.9s-68.4-24.7-98.7-30.9c2.7-2,5.4-3.9,8.2-5.7
		c5.3-3.4,10.9-6.3,16.7-8.7c7.6-3.3,15.6-5.8,23.8-7.4c22.4-4.5,46.3-2.6,69,6.8c22.4,9.2,40.4,24.5,53.1,43.1
		c5.6,8.3,10.2,17.3,13.6,26.7C317.4,167,319.4,175.1,320.5,183.3z"/>
</g>
<g>
	<path class="st0" d="M312.6,245.6c-0.3,0.6-0.5,1.3-0.8,1.9c-2.4,5.6-5.2,10.8-8.3,15.8c-1.4,2.3-2.9,4.5-4.5,6.7
		c-1.8,2.6-3.8,5-5.8,7.4c-2.3,2.7-4.8,5.4-7.4,7.9c-0.5,0.5-1.1,1.1-1.6,1.6c-3.2,3-6.6,5.9-10.1,8.5c-0.8,0.6-1.5,1.1-2.3,1.7
		c-32.4,23.2-75.8,29.7-115.3,13.3c-20.8-8.6-37.9-22.4-50.3-39.2c-3-4-5.7-8.2-8.1-12.5c-2.9-5.1-5.4-10.5-7.5-15.9
		c-1.6-4.2-3-8.5-4.1-12.9c-1.1-4.3-2-8.6-2.6-13c-0.8-5.4-1.2-10.9-1.2-16.5c0-1.3,0-2.6,0.1-4c0-1.8,0.1-3.5,0.3-5.3
		c0.3-3.6,0.7-7.1,1.3-10.7c0-0.3,0.1-0.5,0.1-0.8c1.1-6.2,2.7-12.4,4.8-18.5c0.8-2.2,1.6-4.5,2.5-6.7c1.5-3.6,3.1-7,4.9-10.3
		c4-7.5,8.7-14.5,14-20.8c1.8-2.2,3.7-4.3,5.7-6.3c30.4,3.8,68.9,14.4,109,31c38.7,16,72.3,34.9,96.4,53c0,1.1,0,2.2-0.1,3.3
		c-0.2,6.6-1,13.3-2.4,20C317.7,231.4,315.6,238.6,312.6,245.6z"/>
</g>
<g>
	<path class="st1" d="M321.7,204.2c-9.2-3.4-21.5-7.6-39-15.2c-46.4-20-37.8-9.7-84.1-25.4s-52.9-15.1-93.5-18.6
		c-3.3-0.3-6.1-0.7-8.4-1.1c4-7.5,8.7-14.5,14-20.8c11.5-1.9,36.5-3.6,62.2,10.5c35,19.2,44.1,13.5,79.6,20.5
		c35.5,6.9,23,13.4,50.4,27.5c27.4,14.1-14.9-25.6-27.2-29.6c-12.3-4-50.8-20.8-105.4-40.8c-26.9-9.8-30-12.7-31.9-12.3
		c5.3-3.4,10.9-6.3,16.7-8.7c20.6,4.5,27.9,11.5,69.8,25.6c49.8,16.8,57.7,25.1,89.7,43.5C319.7,173.5,322.2,188.8,321.7,204.2z"/>
	<path class="st1" d="M106.9,258c-4.1-0.3-7.1-0.1-8.9,0.6c-2.9-5.1-5.4-10.5-7.5-15.9c5.9,0.8,12.9,2.5,20.2,6
		C132.4,258.9,127.9,259.7,106.9,258z"/>
	<path class="st1" d="M192.1,90.2c-5.5-3.3-9.8-5.7-13.2-7.5c22.4-4.5,46.3-2.6,69,6.8c22.4,9.2,40.4,24.5,53.1,43.1
		c-8.2-2.9-17.6-5.9-28.1-9C232.6,111.8,221.6,107.9,192.1,90.2z"/>
	<path class="st1" d="M213.2,290.1c41.1,16,46.2,3.3,58.6,7c-32.4,23.2-75.8,29.7-115.3,13.3c-20.8-8.6-37.9-22.4-50.3-39.2
		c5.5,3.2,13.1,6.7,22.7,10.1c33.3,11.8,41.9,18,69.2,20.3c27.2,2.3-15.9-7.9-55.7-24.3C102.6,260.8,172.2,274.1,213.2,290.1z"/>
	<path class="st1" d="M303.5,263.4c-5.5,8.8-12,16.7-19.3,23.6c-21.8-9.3-42.3-8.3-83.2-18.2c-49.5-12-55.9-16.1-107.2-36.1
		c-2.6-1-5-2-7.3-2.9c-2.8-10.8-4.1-22.1-3.7-33.5c15.7-0.5,37.8-0.2,66.4,1.1c59.9,2.6,42.8,16.7,31.7,21.9
		c-11.1,5.3-31.5-11.3-49.7,2.7c-18.3,14,14,8.7,110.3,44.8c96.2,36.1-5.5-12.8-55-28.4c-49.5-15.6-4-16.8,57.3,6.9
		C277.8,258.5,289.4,259.9,303.5,263.4z"/>
	<path class="st1" d="M312.6,245.6c-0.3,0.6-0.5,1.3-0.8,1.9c-7.8-4.2-16-8.6-24.4-12.9c-72.3-37.2-26.8-6.3-85.3-34.7
		c-58.4-28.4-61-15.9-117.8-20.5c1.1-6.2,2.7-12.4,4.8-18.5c10.2,1.3,24.4,3.3,44.4,4c45.6,1.5,48.7,13,124.4,36.1
		c55.8,17,54.7,18.3,61.3,23.2C317.7,231.4,315.6,238.6,312.6,245.6z"/>
</g>
<g>
	<path class="st2" d="M320.5,183.3c0.5,3.4,0.8,6.8,1,10.2c0.1,2,0.2,3.9,0.2,5.9c0,0.5,0,1,0,1.5c28.7,21.6,44,42.3,38.3,55.9
		c-5.3,12.9-28.4,17.1-61,13.3c-30.8-3.6-70.2-14.2-111.4-31.3c-42.6-17.6-79-38.7-103.4-58.5c-24.1-19.6-36.5-38-31.3-50.5
		c5.5-13.2,29.5-17.2,63.4-13c0.6-0.7,1.3-1.4,2-2c1-1,2.1-2,3.2-3c2.8-2.6,5.7-5,8.7-7.3C67.8,91.8,20.3,96.7,10.4,120.7
		c-9.9,24,20.3,61,73.4,96c25.8,17,57,33.5,91.6,47.9c34.6,14.3,68.4,24.7,98.7,30.8c62.3,12.8,109.9,7.9,119.8-16.1
		C403.9,255.3,373.6,218.3,320.5,183.3z"/>
</g>
<g>
	<path class="st3" d="M321.5,193.5c0.1,2,0.2,3.9,0.2,5.9c0,0.5,0,1,0,1.5c28.7,21.6,44,42.3,38.3,55.9c-5.3,12.9-28.4,17.1-61,13.3
		c-30.8-3.6-70.2-14.2-111.4-31.3c-42.6-17.6-79-38.7-103.4-58.5c-24.1-19.6-36.5-38-31.3-50.5c5.5-13.2,29.5-17.2,63.4-13
		c0.6-0.7,1.3-1.4,2-2c1-1,2.1-2,3.2-3c-50-9.1-86.7-5.1-94.4,13.4c-7.6,18.3,14.9,46.5,55.6,75c26.6,18.6,60.9,37.3,99.7,53.3
		c36.9,15.3,72.6,26,103.5,31.8c51.3,9.7,89.3,5.9,97.1-12.9C390.8,253.3,365.9,223.3,321.5,193.5z"/>
</g>
<path class="st4" d="M321.7,199.4c0,0.5,0,1,0,1.5c28.7,21.6,44,42.3,38.3,55.9c-5.3,12.9-28.4,17.1-61,13.3
	c-30.8-3.6-70.2-14.2-111.4-31.3c-42.6-17.6-79-38.7-103.4-58.5c-24.1-19.6-36.5-38-31.3-50.5c5.5-13.2,29.5-17.2,63.4-13
	c0.6-0.7,1.3-1.4,2-2c-41-6.2-70.7-1.9-77.3,13.9c-6.4,15.4,10.4,38.4,42,62.2c25.2,19,59.7,38.5,99.5,54.9
	c40.4,16.7,79.3,27.4,110.8,31.6c38.3,5.1,65.8,0.5,72.1-14.7C371.7,247.2,354.3,223.6,321.7,199.4z"/>
<g class="st5">
	<path class="st6" d="M234.7,285.6c-14.5,1.6-29.6-0.4-44.1-6.4c-12.2-5.1-22.8-12.5-31.3-21.5c5.3,2.4,10.6,4.7,16.1,6.9
		C195.7,272.9,215.6,280,234.7,285.6z"/>
</g>
<g class="st5">
	<path class="st6" d="M292.7,215.1c-6.3,15.1-16.2,27.7-28.3,37c-27.4-5.1-59.5-14.7-92.8-28.4c-18.2-7.5-35.4-15.7-50.9-24.2
		c-3.7-17.3-2.4-35.9,4.8-53.5c19.1-46.1,71.9-68.1,118.1-49S311.8,169,292.7,215.1z"/>
</g>
</svg>
