<?xml version="1.0" encoding="utf-8"?>
<!-- Generator: Adobe Illustrator 25.2.1, SVG Export Plug-In . SVG Version: 6.00 Build 0)  -->
<svg version="1.1" id="Layer_1" xmlns="http://www.w3.org/2000/svg" xmlns:xlink="http://www.w3.org/1999/xlink" x="0px" y="0px"
	 viewBox="0 0 400 400" style="enable-background:new 0 0 400 400;" xml:space="preserve">
<style type="text/css">
	.st0{fill:#56B35C;}
	.st1{fill:#47A049;}
	.st2{opacity:0.25;fill:#85D685;}
</style>
<g>
	<path class="st0" d="M376.3,105.5c1.6,3,3.1,5.9,4.5,8.9c31.6,66.6,23,142.8-16.9,200c-4.2,6-8.8,11.9-13.7,17.4
		c-15.4,17.5-34.2,32.6-55.9,44.3c-13.7,7.3-27.9,12.8-42.2,16.8c-5.1,1.4-10.2,2.5-15.3,3.5c-18.8,3.5-37.8,4.2-56.4,2.4
		c-4.4-0.4-8.7-1-12.9-1.7c-17.4-2.9-34.3-8.1-50.3-15.3c-5.4-2.4-10.7-5.2-15.9-8.1c-12.5-7.1-24.3-15.6-35.1-25.4
		c-3.7-3.3-7.3-6.8-10.8-10.5c-7.3-7.6-14-15.9-20.2-24.9c-3.2-4.7-6.3-9.4-9-14.4c-0.8-1.4-1.6-2.9-2.3-4.2
		c-8.2-15.2-14.1-31-18-46.9c-1.9-7.5-3.2-15.2-4.2-22.8c-1.2-9.8-1.7-19.5-1.4-29.3c0.1-4.4,0.3-8.8,0.7-13.2
		c3.1-34,14.8-66.8,34.2-95.1c6.3-9.2,13.4-17.9,21.2-26c14.1-14.5,30.7-27.3,49.5-37.4c15-8,30.5-13.9,46.2-17.8
		c4.5-1.2,8.9-2.1,13.5-2.9c18.5-3.3,37-3.8,55.3-1.9c9.2,1,18.5,2.5,27.5,4.9c29.3,7.2,56.8,21.1,80.3,40.8c3.6,3,7.1,6.2,10.5,9.4
		c13.7,13.2,25.7,28.5,35.4,46C375,103.2,375.7,104.4,376.3,105.5z"/>
</g>
<g>
	<path class="st1" d="M165.3,2.9c-0.3,9.1-3.6,18.3-8.4,25.8c-18.6,29.5-56.8,30.6-86.6,40.8C58,73.7,46,79.5,35,86.9
		c6.3-9.2,13.4-17.9,21.2-26c14.2-5.7,29-9.2,43.8-13.1c15-3.8,30.9-8.8,41.3-20.2c5.3-5.8,9.3-13.9,10.5-21.9L165.3,2.9z"/>
	<path class="st1" d="M151.5,186.5c12.7,4,22.5,13.8,26.4,26.5c4.1,13.6,0.7,28.8-5.8,41.1c-15.6,29.1-49.8,38.5-75.7,55.6
		c-10.5,6.9-20.6,15.9-26.5,27.3c-1.8,3.4-3.2,7.3-3.8,11.4c-3.7-3.3-7.3-6.8-10.8-10.5c4.6-12.5,13.4-23,23.6-31.4
		c11.9-9.8,25.5-16.6,39.1-23.8c13.7-7.2,28.9-15.4,38.2-27.8c7.3-9.8,12.1-22.7,10.2-34.4c-1.1-5.9-3.3-10.7-7.5-15
		c-3.3-3.3-7.4-5.5-12.2-6.8c-10-2.8-22.4-0.7-31.9,3.2c-11.5,4.7-24.1,12.8-28.1,24.5c-4,11.6-1.5,24.9-2.3,37.4
		c-1,14-6.7,27.1-17.4,36.3c-8.7,7.4-20.1,12.5-31.6,12.8c-3.2-4.7-6.3-9.4-9-14.4c2,1,4.4,1.2,6.7,1.3c11.6,0.4,23.1-5.7,30.1-14.5
		c8.1-10.2,8.4-21.9,8.3-34.6c-0.2-13.7,0-27.8,8.6-39.2c8.7-11.6,22.1-19.3,35.7-23.8C126.9,184,139.9,182.9,151.5,186.5z"/>
	<path class="st1" d="M250.1,6.5c2.5,1.3,4.9,3,7.3,4.8c2.5,2.2,4.8,4.7,6.7,7.3c5.8,7.9,9.1,17.6,9.9,27.5
		c1.1,13.6-3.5,26.6-12.3,36.9c-9,10.5-22.8,17.4-36.5,19.3c-7.6,1.1-15.1,0.6-22.5-1c-6.8-1.4-13.8-3.8-20.8-3
		c-7.4,0.8-14.6,4.2-21.3,7.3c-6.6,3.1-13.5,7-17.2,13.1c-2.9,4.7-4,10.9-1.9,15.2c2.1,4,6.4,6.2,11,6.7c12.8,1.7,25.4-4.2,38.6-3.8
		c13.7,0.4,25.9,8.8,27.4,23.2c1.4,13.1-5.7,27.1-19.2,30.2c-7.4,1.8-15.3,0.2-22.4-2c-6.5-2-12.9-4.1-19.6-5.6
		c-13.5-3-27.5-3.8-41.2-3c-21.8,1.4-43.2,7.5-62.4,17.7c-4.6,2.5-9.1,5.2-13.5,8.1c-10.7,7.2-21.5,16.3-28.5,27.5
		c-2.8,4.4-4.9,9.2-5.8,14.2c-1.9-7.5-3.2-15.2-4.2-22.8c5.5-8.4,12.8-15.6,20.7-22c9.1-7.3,19-13.6,29.4-18.8
		c15.1-7.5,31.3-12.7,48-15.3c13.9-2.1,28.1-2.8,42.1-1.4c7.3,0.7,14.5,1.9,21.6,3.6c6.9,1.7,13.6,4.1,20.5,5.9
		c3.3,0.8,6.6,1.5,10,1.3c1.1-0.1,2.4-0.4,3.5-0.7c0.1,0,0.2,0,0.2-0.1c0.1,0,0.2-0.1,0.3-0.1c0.6-0.3,1.2-0.6,1.7-1
		c0.1,0,0.1-0.1,0.2-0.1c0.3-0.3,0.6-0.5,1-0.8c0.4-0.3,0.7-0.7,1.1-1.2c0.1-0.2,0.7-1,0.7-1.1c0.3-0.5,0.6-1.2,1-1.7
		c0.6-1.2,1.5-4.4,1.7-5.8c0.2-2.9,0.2-4.4-0.7-7.1c-0.1-0.1-0.5-1.1-0.5-1.2c-0.2-0.4-0.4-0.8-0.7-1.3c-0.1-0.1-0.7-1-0.7-1.1
		c-0.4-0.4-0.8-0.8-1.3-1.3c0,0-1.4-1-1.7-1.1c0,0-1.3-0.6-1.3-0.7c-1.3-0.5-2.8-1-4.1-1.3c-1.8-0.3-5.1-0.3-7.4-0.2
		c-5.8,0.3-12.4,2.1-18.6,3.1c-6.9,1.1-13.9,1.4-20.8-0.1c-6.9-1.5-13.1-5.5-16.8-11.6c-3.8-6.2-4.1-13.9-2.3-20.8
		c4.4-16.6,20.5-24.6,35.1-30.5c7.6-3.1,15.4-5.6,23.8-5.1c7.5,0.4,14.6,3.1,22.1,4.1c12.5,1.9,25.9-1.4,35.8-8.6
		c5.4-3.9,9.6-8.8,12.5-14.6c2.4-4.7,3.6-10.4,3.6-16c0.1-10.9-4.1-22-12.9-29.1c-9-7.2-22.8-8.4-34.5-5.7
		C197.6,18.7,184,29,171.4,39.2c-13.1,10.5-25.8,21.4-38,32.9C108.8,95,85.7,119.8,64.8,146c-4.7,5.9-9.2,12-13.8,18
		c-4.6,5.9-9.4,11.6-14.9,16.6c-9.9,9.1-22.2,16.1-35.8,14.4c0.1-4.4,0.3-8.8,0.7-13.2c1,0.2,1.9,0.3,3,0.3
		c5.5,0.2,10.4-1.9,15.6-5.2c4.8-3.1,9.8-7.9,13.9-12.5c4.8-5.3,8.8-10.8,13.2-16.6c2.3-2.9,4.5-5.8,6.8-8.7c3.2-4,6.3-7.9,9.6-11.9
		c21.4-25.8,44.7-50.1,69.6-72.5c12.7-11.5,25.8-22.8,39.7-33c5.6-4.2,11.5-8.2,17.7-11.5c8.3-4.5,17.1-7.8,26.5-9
		c0.7-0.1,1.5-0.2,2.3-0.3L250.1,6.5z"/>
	<path class="st1" d="M339,56.1c-0.4,0.2-0.8,0.4-1.3,0.6c-3,1.5-5.9,3.1-8.8,4.7c-51.2,29.2-85.1,81.2-106.8,134.7
		c-23.2,57.4-30.5,127.5-80.4,169.9c-7.3,6.2-15.6,11.9-24.4,16c-5.4-2.4-10.7-5.2-15.9-8.1c0.5-0.1,1.1-0.3,1.6-0.4
		c3.2-1,5.8-2,9.2-3.7c3.4-1.6,6.7-3.5,9.8-5.4c6.2-3.8,11.7-8.5,16.9-13.5c22.6-22.2,35.2-51.8,45-81.4
		c9.8-29.8,17.9-60.1,30.7-88.8c12.2-27.7,27.3-53.9,46.4-77.4c18.7-22.8,41.4-42.9,67.7-56.5C332.1,49.6,335.6,52.7,339,56.1z"/>
	<path class="st1" d="M367.2,283c2.3,9.7-0.7,20-2.8,29.3c-0.1,0.7-0.3,1.5-0.4,2.2l-13.7,17.4c-1.2-5.6-0.6-11.6,0.3-17.6
		c0.8-4.8,2-9.4,3-14.1c0.2-1,0.4-2,0.6-3.1c0,0,0,0,0-0.1c0-0.3,0.2-1.7,0.3-2c0.2-2.1,0.3-4.2,0.3-6.5c0-0.1,0-0.3,0-0.4
		c0,0,0-0.1,0-0.2l0,0v-0.1v-0.1c-0.1-0.4-0.2-1-0.3-1.5c-0.1-0.4-0.3-1-0.3-1.4v-0.1v-0.1c-0.4-0.7-0.7-1.4-1.2-2.1
		c0.3,0.5-1.2-1.3-1.5-1.7c-0.3-0.3-0.6-0.5-1.1-0.7l-1.2-0.6c-0.4-0.2-1-0.3-1.5-0.5c-0.2,0-0.4-0.1-0.5-0.1l0,0
		c-0.1,0-0.2,0-0.3,0c-2.9-0.3-3.8-0.1-6.8,0.7c-2.2,0.6-4.2,1.6-6.9,3.1c-2.4,1.4-4.9,3.1-6.5,4.2c-6,4.7-11.8,9.8-17.4,15
		c-11.4,10.4-22.1,21.5-31,34.2c-9.2,13.1-15.6,27.4-21,42.3c-1.7,4.7-3.5,9.6-5.3,14.4c-5.1,1.4-10.2,2.5-15.3,3.5
		c4.6-11.4,8.2-23,12.4-33.6c5.9-14.9,13.7-28.7,23.6-41.3c9.9-12.5,21.1-23.8,33.1-34.3c9.9-8.6,21-19.1,34.5-21.1
		C352.4,264.3,364.1,270.9,367.2,283z"/>
	<path class="st1" d="M239.8,246.9c0.6,1.8,2,4.8,3.7,5.6c1.4,0.6,3.9-0.4,5.7-1.2c2.9-1.3,5.6-2.9,8.3-4.6c2.1-1.4,4.8-3.5,7-5.6
		c2.3-2.1,4.5-4.4,6.5-6.7c8.1-9.3,14.6-21.3,20.8-32.5c6.6-11.9,13.1-24,21.3-34.7c9.8-12.6,23-24.9,40.1-24.6
		c7.1,0.2,14.1,2.8,19.4,7.5c6.3,5.7,8.7,14.3,8.8,22.5c0.2,13.5-5.5,27-13.6,37.5c-8.6,11.2-19.3,20.3-30.8,28.3
		c-12.8,9.1-26.4,17.2-39.9,25.6c-27.9,17.5-56.4,35.6-79.1,60c-17.4,18.7-30.9,42-36.4,67.3c-0.5,2.5-1,5.1-1.4,7.6
		c-4.4-0.4-8.7-1-12.9-1.7c3.8-27.2,16.4-52.4,33.6-73.5c20.6-25.4,48-44.5,75.4-61.9c14.1-9,28.5-17.6,42.6-26.7
		c11.1-7.2,21.6-14.5,31.1-24.2c8.7-8.8,15.8-19.3,17.9-31.7c1-5.3,1-12.6-2.5-17.6c-3.3-4.6-9.1-6.3-15-5.7
		c-13.5,1.2-23.9,14.8-31,25.2c-7.7,11.5-14,23.8-20.8,35.8c-6.6,11.6-13.8,22.9-23.3,32.4c-4.8,4.7-10.3,8.9-16.2,12.1
		c-6.8,3.7-15.2,7-22.4,2.5c-6.5-3.9-9.4-11.7-11-18.7c-1.6-6.9-1.7-14.1-0.6-21c1.2-7.2,3.7-14.3,7.5-20.5
		c4.2-6.8,10.1-12.5,16.3-17.6c13.9-11.5,28.3-22.3,43.1-32.5c14.2-9.9,29-18.1,44.4-25.9c13.5-6.8,27.9-13.8,37.9-25.6
		c0.6,1.2,1.3,2.3,2,3.6c1.6,3,3.1,5.9,4.5,8.9c-6.8,6.8-15.1,12.2-23.2,16.9c-14.9,8.4-30.5,15.2-45,24.2
		c-14.8,9.2-28.7,19.6-42.5,30.2c-11.7,9-25.2,18.3-30.2,32.5c-2,5.8-3,12.3-2.4,18.3C237.9,240.1,238.7,243.6,239.8,246.9z"/>
</g>
<path class="st2" d="M18.4,150.5C36.8,58.4,126.3-1.3,218.2,17c42.5,8.5,78.1,32.2,102.3,64.2c28.2,37.4-19.8,132.9-111.2,191.9
	C128.1,325.6,61.6,309.7,38,269C18,234.4,10,192.7,18.4,150.5z"/>
<path class="st2" d="M36.4,140.9C51.1,67,123,19,196.9,33.7c34.1,6.8,62.7,25.8,82.2,51.6c22.6,30-15.9,106.8-89.3,154.2
	c-65.2,42.1-118.7,29.3-137.6-3.4C36,208.4,29.6,174.8,36.4,140.9z"/>
<path class="st2" d="M394.9,238.2C371.1,340,267.1,411.7,164.3,393.4C95,381,47.8,327.1,47.8,327.1s88.9,74.4,228.4,10.4
	C423.3,270,373,98.3,373,98.3S414.9,152.3,394.9,238.2z"/>
</svg>
