<?xml version="1.0" encoding="utf-8"?>
<!-- Generator: Adobe Illustrator 25.2.1, SVG Export Plug-In . SVG Version: 6.00 Build 0)  -->
<svg version="1.1" id="Layer_1" xmlns="http://www.w3.org/2000/svg" xmlns:xlink="http://www.w3.org/1999/xlink" x="0px" y="0px"
	 viewBox="0 0 400 400" style="enable-background:new 0 0 400 400;" xml:space="preserve">
<style type="text/css">
	.st0{fill:#0A9396;}
	.st1{opacity:0.19;}
	.st2{fill:#6BC96E;}
	.st3{opacity:0.44;}
</style>
<g>
	<path class="st0" d="M399.8,199.9c0,9-0.6,17.8-1.7,26.5c-2.3,16.9-6.6,33.1-12.8,48.4c-1.5,3.7-3.1,7.4-4.8,11.1
		c-11.8,24.7-28.5,46.6-48.8,64.4c-12.4,10.8-26.1,20.3-40.9,27.8c-3.2,1.6-6.4,3.2-9.8,4.7c-16.4,7.3-33.9,12.4-52.2,15
		c-3.8,0.6-7.6,1-11.5,1.3c-3,0.3-5.8,0.4-8.8,0.6c-2.8,0.1-5.6,0.2-8.5,0.2c-17,0-33.5-2.1-49.1-6.1c-3.5-0.8-6.9-1.8-10.2-2.9
		c-1.9-0.6-3.9-1.2-5.7-1.9c-36.1-12.5-67.7-35-91.1-64.3c-7.2-8.9-13.5-18.5-19.1-28.7c-8.1-14.6-14.3-30.5-18.5-47.2
		c-1.4-5.6-2.6-11.4-3.5-17.1c-1.6-10.3-2.6-21-2.6-31.7c0-3.7,0.1-7.5,0.3-11.2c0.2-3.4,0.4-6.8,0.8-10c0-0.5,0.1-0.9,0.2-1.4
		c2.6-23.3,9.3-45.5,19.2-65.8c10.5-21.3,24.6-40.3,41.4-56.4c20.9-19.9,46-35.3,73.8-44.7c3.4-1.1,6.8-2.1,10.2-3.2
		c8.4-2.4,17.1-4.2,26-5.4c3.7-0.5,7.5-0.9,11.3-1.2l0,0c5.5-0.5,11.1-0.7,16.7-0.7c11.2,0,22,0.9,32.7,2.7c9.6,1.5,19,3.8,28.1,6.8
		l0,0c10.4,3.4,20.6,7.5,30.2,12.4c13.9,7.2,26.9,15.9,38.7,26c6.7,5.7,13,11.9,18.9,18.4c2.5,2.8,4.8,5.5,7.2,8.4
		c14.7,18.3,26.3,39.2,33.9,62c5.8,17.6,9.4,36.2,10.1,55.6C399.7,194.7,399.8,197.2,399.8,199.9z"/>
</g>
<g class="st1">
	<circle class="st2" cx="210" cy="186.5" r="170.5"/>
</g>
<g class="st3">
	<path class="st2" d="M164.6,211.7c-9.9,10.2,27.5,25,0,39.6c-27.5,14.6,17.6,35.6,17.6,35.6s32.8,25.5,32.8,64.2
		c0,17.7-3.2,34.9-6.6,48.4c-2.8,0.1-5.6,0.2-8.5,0.2c-17,0-33.5-2.1-49.1-6.1c-3.5-0.8-6.9-1.8-10.2-2.9c-1.9-0.6-3.9-1.2-5.7-1.9
		C117.2,375.9,98,360,94.7,344.6c-5.8-27.5,0.5-39.4,23.4-67s25.4-26.4,25.4-26.4s-21.8-32.1-25.4-51.4c-3.5-19.2-33.5,0-33.5,0
		s0-46,0-60.1V95.8c0-12.8-12-28.8-22.7-40.5c20.9-19.9,46-35.3,73.8-44.7c3.4-1.1,6.8-2.1,10.2-3.2c8.4-2.4,17.1-4.2,26-5.4
		c3.7-0.5,7.5-0.9,11.3-1.2l0,0c5.5-0.5,11.1-0.7,16.7-0.7c26.1,20,31.6,6.1,32.4,3.2c-1.1,5-10.2,44.7-32.4,89.8
		c-23.8,48.3-0.8,15.1,0,53.9s32.7,52.9,32.7,52.9h-17.6C214.9,199.9,174.4,201.4,164.6,211.7z"/>
</g>
<g class="st3">
	<path class="st2" d="M380.5,285.8l17.6-59.4l-45.8-50.7v-25.2l37.3-14c-7.6-22.7-19.1-43.7-33.9-62c-2.4-2.9-4.7-5.6-7.2-8.4
		c-5.9-6.6-12.2-12.7-18.9-18.4l-56.7,30.9l-13.1,64.7l37.1,21.6l30.3,34.9l-54.2,29.8v48L306,299c0,0,5.7,3.4,14.5,27.7
		c2.7,7.5,6.8,15.7,11.1,23.3L380.5,285.8z"/>
</g>
</svg>
