<?xml version="1.0" encoding="utf-8"?>
<!-- Generator: Adobe Illustrator 25.2.1, SVG Export Plug-In . SVG Version: 6.00 Build 0)  -->
<svg version="1.1" id="Layer_1" xmlns="http://www.w3.org/2000/svg" xmlns:xlink="http://www.w3.org/1999/xlink" x="0px" y="0px"
	 viewBox="0 0 400 400" style="enable-background:new 0 0 400 400;" xml:space="preserve">
<style type="text/css">
	.st0{fill:#0A9396;}
	.st1{opacity:0.3;}
	.st2{fill:#6BC96E;}
	.st3{opacity:0.15;fill:#B7EAB7;}
	.st4{opacity:9.000000e-02;fill:#B7EAB7;}
</style>
<g>
	<path class="st0" d="M399.8,199.9c0,9-0.6,17.8-1.7,26.5c-2.3,16.9-6.6,33.1-12.8,48.4c-1.5,3.6-3,7.3-4.8,10.9c0,0,0,0.1-0.1,0.1
		c-11.8,24.7-28.5,46.6-48.8,64.4c-12.4,10.8-26.1,20.3-40.9,27.8c-3.2,1.6-6.5,3.2-9.8,4.7c-16.4,7.3-33.9,12.4-52.2,15
		c-3.8,0.6-7.6,1-11.5,1.3c-3,0.3-5.8,0.4-8.8,0.6c-2.8,0.1-5.6,0.2-8.5,0.2c-17,0-33.5-2.2-49.1-6.1c-3.5-0.8-6.9-1.8-10.2-2.9
		c-1.9-0.6-3.9-1.2-5.7-1.9c-36.1-12.5-67.7-35-91.1-64.3c-7.2-8.9-13.5-18.5-19.2-28.7c-8.1-14.6-14.3-30.5-18.5-47.2
		c-1.4-5.6-2.6-11.4-3.5-17.1c-1.6-10.3-2.6-21-2.6-31.7c0-3.7,0.1-7.5,0.3-11.1c0.2-3.4,0.4-6.8,0.8-10c0-0.5,0.1-0.9,0.2-1.4
		c2.6-23.3,9.3-45.5,19.2-65.8c10.5-21.3,24.6-40.3,41.3-56.4c20.9-19.9,46-35.3,73.8-44.7c3.4-1.1,6.8-2.1,10.2-3.2
		c8.4-2.3,17.1-4.2,26-5.4c3.7-0.5,7.5-0.9,11.2-1.2c5.5-0.5,11.1-0.7,16.7-0.7c11.1,0,22,0.9,32.6,2.7c9.6,1.5,19,3.8,28.2,6.8
		c10.4,3.4,20.6,7.5,30.2,12.4c13.9,7.2,26.8,15.8,38.6,25.9c0,0,0.1,0.1,0.1,0.1c6.6,5.7,13,11.9,18.9,18.4
		c2.4,2.8,4.8,5.5,7.2,8.4c14.7,18.3,26.3,39.1,33.9,61.9c0,0,0,0.1,0,0.1c5.8,17.6,9.4,36.2,10.1,55.6
		C399.7,194.7,399.8,197.2,399.8,199.9z"/>
</g>
<g class="st1">
	<path class="st2" d="M164.6,211.7c-9.9,10.2,27.5,25,0,39.6c-27.5,14.6,23.3,26.5,38.1,34.1c14.8,7.7,2,29.7,2,68.4
		c0,17.7,7,32.1,3.6,45.6c-2.8,0.1-5.6,0.2-8.5,0.2c-17,0-33.5-2.1-49.1-6.1c-3.5-0.8-6.9-1.8-10.2-2.9c-1.9-0.6-3.9-1.2-5.7-1.9
		C117.2,375.9,98,360,94.7,344.6c-5.8-27.5-6.2-46.1,11.5-62.8c17.7-16.7,36.8-20,37.3-30.7c0.5-10.7-21.8-32.1-25.4-51.4
		c-3.5-19.2-26.9,0.9-33.5,0c-6.5-0.9,0-46,0-60.1V95.8c0-12.8-12-28.8-22.7-40.5c20.9-19.9,46-35.3,73.8-44.7
		c3.4-1.1,6.8-2.1,10.2-3.2c8.4-2.4,17.1-4.2,26-5.4c3.7-0.5,7.5-0.9,11.3-1.2l0,0c5.5-0.5,11.1-0.7,16.7-0.7
		c26.1,20,22.3,1.8,32.4,3.2c10.2,1.4-10.2,44.7-32.4,89.8c-23.8,48.3-0.8,15.1,0,53.9s32.7,46.9,32.7,52.9c0,6-17.6,0-17.6,0
		C214.9,199.9,174.4,201.4,164.6,211.7z"/>
</g>
<g class="st1">
	<path class="st2" d="M398.1,226.4c-2.3,16.9-6.6,33.1-12.8,48.4c-1.5,3.6-3,7.3-4.8,10.9c0,0,0,0-0.1,0
		c-30.6,12.6-48.8,64.3-48.8,64.3c-4.3-7.7-8.4-15.9-11.1-23.3C311.8,302.3,306,299,306,299s-29.3-14.6-33.2-21.4
		c-3.9-6.8-8.4-35,0-48c8.4-13,54.8-20.8,54.2-29.8c-0.6-9-22.8-28.2-30.3-34.9c-7.5-6.7-32.3-11.7-37.1-21.6
		c-4.7-9.9-3.5-44.3,13.1-64.7c16.1-19.9,54.5-30.3,56.6-30.9c0.1,0,0.1,0,0.1,0c6.8,5.7,13,11.9,18.9,18.4c2.4,2.8,4.8,5.5,7.2,8.4
		c14.7,18.3,26.3,39.3,33.9,62c0,0,0,0,0,0c-1.1,0.4-33.2,11.5-37.2,14c-4.1,2.5-6.1,18.4,0,25.2S398.1,226.4,398.1,226.4z"/>
</g>
<path class="st3" d="M149.5,21.1c89.1-29.5,185.3,18.7,214.8,107.8c13.6,41.1,10.6,83.8-5.3,120.7c-18.6,43-125.4,48.5-221.8-1.8
	c-85.7-44.7-104.7-110.4-81-151C76.3,62.2,108.6,34.6,149.5,21.1z"/>
<path class="st3" d="M166.7,31.9c71.6-23.7,148.8,15,172.5,86.6c10.9,33,8.5,67.3-4.3,96.9c-14.9,34.5-100.7,38.9-178.2-1.5
	c-68.8-35.9-84.1-88.7-65.1-121.3C107.9,65,133.8,42.8,166.7,31.9z"/>
<path class="st4" d="M259.3,391.7c-100.2,29.7-214-25.3-248.9-123.7c-23.5-66.3,0.1-134,0.1-134S-10.2,248,114.3,337.6
	c131.4,94.5,255.8-34,255.8-34S343.8,366.6,259.3,391.7z"/>
</svg>
