<?xml version="1.0" encoding="utf-8"?>
<!-- Generator: Adobe Illustrator 25.2.1, SVG Export Plug-In . SVG Version: 6.00 Build 0)  -->
<svg version="1.1" id="Layer_1" xmlns="http://www.w3.org/2000/svg" xmlns:xlink="http://www.w3.org/1999/xlink" x="0px" y="0px"
	 viewBox="0 0 400 400" style="enable-background:new 0 0 400 400;" xml:space="preserve">
<style type="text/css">
	.st0{fill:#C87741;}
	.st1{fill:#BA6831;}
	.st2{opacity:0.28;}
	.st3{fill:#D88850;}
</style>
<g>
	<path class="st0" d="M27.2,295.2c-1.7-3.2-3.3-6.4-4.8-9.7c-6.9-14.9-11.7-30.3-14.6-45.8c-2.2-11.8-3.3-23.7-3.4-35.6
		c0-9.4,0.6-18.8,1.9-28.1c1.7-11.9,4.5-23.7,8.3-35.1c8.1-24.1,20.8-46.6,37.7-66.2c15.5-17.9,34.6-33.3,56.8-45.1
		c56-29.6,119.9-29.4,173.4-5c9.2,4.2,18.1,9.1,26.6,14.7c7.9,5.2,15.5,11,22.6,17.4c8.1,7.2,15.7,15.2,22.6,23.9
		c2.1,2.6,4.2,5.3,6.1,8.1c5.2,7.2,9.9,14.8,14.2,22.9c1.1,2.1,2.1,4.1,3.1,6.2c2.5,5.1,4.7,10.2,6.7,15.4l0,0
		c2.9,7.6,5.3,15.2,7.2,22.9l0,0c2.4,9.5,4,19,4.9,28.5c0.7,6.8,0.9,13.6,0.9,20.4c-0.2,16.3-2.4,32.6-6.5,48.2
		c-5.2,20-13.6,39.1-24.9,56.6c-10.5,16.3-23.6,31.2-38.9,44.1c-10.4,8.7-21.9,16.5-34.4,23.1c-4.8,2.6-9.8,4.9-14.7,7
		c-10.2,4.4-20.6,7.8-31.2,10.3c-28.7,6.9-58.2,7.1-86.2,1.2c-13.8-2.9-27.2-7.2-40-13c-14.9-6.7-29-15.2-41.9-25.5
		c-9.9-7.8-19-16.7-27.3-26.5c-6.4-7.6-12.3-15.7-17.6-24.4C31.3,302.8,29.2,299.1,27.2,295.2z"/>
</g>
<g>
	<g>
		<path class="st1" d="M160.6,395.8l32.9-7.3c0,0,68.1-23,95.3-33c13-4.8,27.2-3.7,38.4-1.3c-10.4,8.7-21.9,16.5-34.4,23.1
			c-4.8,2.6-9.8,4.9-14.7,7l-31.2,10.3C218,401.5,188.6,401.7,160.6,395.8z"/>
	</g>
	<g>
		<path class="st1" d="M78.6,357.3c9.9-8.2,24.1-16.9,44.2-24.7c62.9-24.6,100.5-11.5,156.4-30.4c38.4-13,84.8-35.1,111.7-48.7
			c-5.2,20-13.6,39.1-24.9,56.6c-20.4,10.9-49.4,23.8-79.3,29.1c-55.5,9.8-79.8-3.4-123.9,19.9c-15.8,8.3-30.2,16.6-42.3,23.7
			C105.6,376.1,91.5,367.6,78.6,357.3z"/>
	</g>
	<g>
		<path class="st1" d="M22.4,285.6c-6.9-14.9-11.7-30.3-14.6-45.8c13.3-5.8,31.8-13.1,56.7-21.7c69.8-23.8,86.6-19.3,110.1-14.5
			c23.5,4.7,48.5,52.2,129.3,20.4c41.1-16.2,72.1-29.7,92.7-39.1c0.7,6.8,0.9,13.6,0.9,20.4C383.7,217,364,230.6,336,243.8
			c-74.7,35.1-164.3,13.1-209.3,34.7c-45,21.6-75.5,52.4-75.5,52.4c-6.4-7.6-12.3-15.7-17.6-24.4c4.8-3.3,10.4-7.1,17.1-11.7
			c41.4-28.4,99.9-57.1,105-59.8c5.1-2.7-16.5-10.8-45.3,4.4L27.8,283C26,283.9,24.2,284.8,22.4,285.6z"/>
	</g>
	<g>
		<path class="st1" d="M98.6,190.7c0,0,22.1-30.5,47.8-31s40.1-14.3,97.9,4.8c53,17.6,118.9-6.4,140.2-31.1
			c2.9,7.6,5.3,15.2,7.2,22.9l0,0c-17.5,16.7-47.6,39.2-86.6,45.3C241,211.6,219.9,188,194,180S98.6,190.7,98.6,190.7z"/>
	</g>
	<g>
		<path class="st1" d="M4.4,204.2c0-9.4,0.6-18.8,1.9-28.1c3.8-4.6,8.1-9.5,13.1-14.4c28.5-28.1,59-44.2,91.2-61.2
			s69.5,0.2,102.9,6.1c0,0,48.9-6,84-31.3c11.6-8.3,23.4-14.2,34-18.3c8.1,7.2,15.7,15.2,22.6,23.9c-34.6,12.2-64.1,42-90.2,55.8
			c-32.2,17-34.1,9.3-75.5-3.7c-41.4-13.1-31.1-9.4-96.6,14.4C40.4,165.9,26.2,189.1,4.4,204.2z"/>
	</g>
	<g>
		<path class="st1" d="M268.7,149.2c0,0,53.7-50.5,91.8-60.4c5.2,7.2,9.9,14.8,14.2,22.9c1.1,2.1,2.1,4.1,3.1,6.2
			c-12.4,12-33,27.4-59.3,31C274,155.1,268.7,149.2,268.7,149.2z"/>
	</g>
	<g>
		<path class="st1" d="M14.6,141c8.1-24.1,20.8-46.6,37.7-66.2c7.7-2.8,16.9-5.5,28.2-8.3C141.4,51.7,227.1,49.8,257.7,38
			c9.7-3.8,18-8.5,24.8-13.3c9.2,4.2,18.1,9.1,26.6,14.7c-9.1,12.5-24.3,27.3-47.3,31.1c-41.9,6.9-96.1-1.3-114.8,4.3
			c-18.7,5.6-51.3,5.4-107,47.8C30.5,129.9,22.1,135.9,14.6,141z"/>
	</g>
</g>
<g class="st2">
	<circle class="st3" cx="208.4" cy="181.7" r="156.2"/>
</g>
</svg>
