<?xml version="1.0" encoding="utf-8"?>
<!-- Generator: Adobe Illustrator 25.2.1, SVG Export Plug-In . SVG Version: 6.00 Build 0)  -->
<svg version="1.1" id="Layer_1" xmlns="http://www.w3.org/2000/svg" xmlns:xlink="http://www.w3.org/1999/xlink" x="0px" y="0px"
	 viewBox="0 0 400 400" style="enable-background:new 0 0 400 400;" xml:space="preserve">
<style type="text/css">
	.st0{fill:#0A9396;}
	.st1{opacity:0.26;}
	.st2{fill:#6BC96E;}
	.st3{opacity:0.44;}
</style>
<g>
	<path class="st0" d="M396,200.3c0,8.8-0.6,17.4-1.7,25.9c-2.2,16.5-6.4,32.3-12.5,47.3c-1.5,3.6-3,7.2-4.7,10.8
		c-11.5,24.1-27.8,45.5-47.7,62.9c-12.1,10.6-25.5,19.8-40,27.2c-3.1,1.6-6.3,3.1-9.6,4.6c-16,7.1-33.1,12.1-51,14.7
		c-3.7,0.6-7.4,1-11.2,1.3c-2.9,0.3-5.7,0.4-8.6,0.6c-2.7,0.1-5.5,0.2-8.3,0.2c-16.6,0-32.7-2.1-48-6c-3.4-0.8-6.7-1.8-10-2.8
		c-1.9-0.6-3.8-1.2-5.6-1.9c-35.3-12.2-66.1-34.2-89-62.8c-7-8.7-13.2-18.1-18.7-28c-7.9-14.3-14-29.8-18.1-46.1
		c-1.4-5.5-2.5-11.1-3.4-16.7c-1.6-10.1-2.5-20.5-2.5-31c0-3.6,0.1-7.3,0.3-10.9c0.2-3.3,0.4-6.6,0.8-9.8c0-0.5,0.1-0.9,0.2-1.4
		c2.5-22.8,9.1-44.5,18.8-64.3C35.8,93.3,49.5,74.7,65.9,59c20.4-19.4,44.9-34.5,72.1-43.7c3.3-1.1,6.6-2.1,10-3.1
		c8.2-2.3,16.7-4.1,25.4-5.3c3.6-0.5,7.3-0.9,11-1.2h0c5.4-0.5,10.8-0.7,16.3-0.7c10.9,0,21.5,0.9,31.9,2.6
		c9.4,1.5,18.6,3.7,27.5,6.6h0c10.2,3.3,20.1,7.3,29.5,12.1c13.6,7,26.3,15.5,37.8,25.4c6.5,5.6,12.7,11.6,18.5,18
		c2.4,2.7,4.7,5.4,7,8.2c14.4,17.9,25.7,38.3,33.1,60.6c5.7,17.2,9.2,35.4,9.9,54.3C395.9,195.2,396,197.7,396,200.3z"/>
</g>
<g class="st1">
	<circle class="st2" cx="213.4" cy="183.9" r="166.6"/>
</g>
<g class="st3">
	<path class="st2" d="M166.2,211.8c-9.7,10,26.9,24.4,0,38.7s17.2,34.8,17.2,34.8s32,24.9,32,62.7c0,17.3-3.1,34.1-6.4,47.3
		c-2.7,0.1-5.5,0.2-8.3,0.2c-16.6,0-32.7-2.1-48-6c-3.4-0.8-6.7-1.8-10-2.8c-1.9-0.6-3.8-1.2-5.6-1.9c-17.2-12.5-36-28.1-39.2-43.1
		c-5.7-26.9,0.5-38.5,22.9-65.5c22.4-27,24.8-25.8,24.8-25.8s-21.3-31.4-24.8-50.2c-3.4-18.8-32.7,0-32.7,0s0-44.9,0-58.7V98.6
		c0-12.5-11.7-28.1-22.2-39.6c20.4-19.4,44.9-34.5,72.1-43.7c3.3-1.1,6.6-2.1,10-3.1c8.2-2.3,16.7-4.1,25.4-5.3
		c3.6-0.5,7.3-0.9,11-1.2h0c5.4-0.5,10.8-0.7,16.3-0.7c25.5,19.5,30.9,6,31.7,3.1c-1.1,4.9-10,43.7-31.7,87.7
		c-23.3,47.2-0.8,14.8,0,52.7c0.8,37.9,31.9,51.7,31.9,51.7h-17.2C215.4,200.3,175.8,201.8,166.2,211.8z"/>
</g>
<g class="st3">
	<path class="st2" d="M377.1,284.2l17.2-58l-44.7-49.5v-24.6l36.4-13.7c-7.4-22.2-18.7-42.7-33.1-60.6c-2.3-2.8-4.6-5.5-7-8.2
		c-5.8-6.4-11.9-12.4-18.5-18L272,81.8L259.2,145l36.2,21.1l29.6,34.1l-53,29.1v46.9l32.4,20.9c0,0,5.6,3.3,14.2,27.1
		c2.6,7.3,6.6,15.3,10.8,22.8L377.1,284.2z"/>
</g>
</svg>
