<?xml version="1.0" encoding="utf-8"?>
<!-- Generator: Adobe Illustrator 25.2.1, SVG Export Plug-In . SVG Version: 6.00 Build 0)  -->
<svg version="1.1" id="Layer_1" xmlns="http://www.w3.org/2000/svg" xmlns:xlink="http://www.w3.org/1999/xlink" x="0px" y="0px"
	 viewBox="0 0 400 400" style="enable-background:new 0 0 400 400;" xml:space="preserve">
<style type="text/css">
	.st0{fill:#9B2226;}
	.st1{fill:#871F2C;}
	.st2{opacity:0.51;}
	.st3{fill:#AA2731;}
</style>
<g>
	<path class="st0" d="M361.6,82.1c2.2,3,4.3,6,6.2,9c9.1,14,16.2,28.8,21.4,44c3.9,11.6,6.9,23.4,8.6,35.3c1.5,9.5,2.1,19,2.2,28.6
		c0,12.3-1,24.5-3.2,36.6c-4.6,25.4-14.1,50-28.4,72.2c-13,20.4-29.9,38.6-50.6,53.7c-52,38-116.3,47.2-173.9,30.3
		c-9.9-2.9-19.5-6.5-29-10.9c-8.7-4.1-17.2-8.8-25.3-14.2c-9.2-6.1-18.1-13-26.3-20.8c-2.5-2.4-5-4.8-7.4-7.3
		c-6.2-6.4-12.2-13.5-17.7-21c-1.4-2-2.8-3.8-4.1-5.8c-3.2-4.8-6.2-9.6-9-14.5l0,0c-4.1-7.2-7.6-14.5-10.6-22l0,0
		c-3.7-9.1-6.8-18.5-9-28c-1.7-6.8-2.9-13.6-3.8-20.5c-2.2-16.5-2.4-33.1-0.5-49.5c2.4-20.9,8-41.3,16.8-60.7
		c8.2-18,19.1-34.9,32.7-50.1c9.5-10.2,19.8-19.6,31.5-28.1c4.5-3.3,9.1-6.3,13.8-9.2c9.7-5.9,19.6-10.9,29.9-15
		c27.9-11.1,57.5-15.6,86.6-13.8c14.3,0.9,28.5,3.3,42.2,7.3c16,4.6,31.5,11,45.9,19.5c11.1,6.4,21.6,14,31.4,22.6
		c7.6,6.6,14.7,14,21.3,21.9C356.3,75.2,359,78.6,361.6,82.1z"/>
</g>
<path class="st1" d="M212.6,0.4l-32.1,12.2c0,0-65.2,33-91.1,47.2c-12.5,6.8-26.8,7.7-38.4,7c9.2-10.3,19.6-19.7,31.3-28.3
	c4.5-3.3,9.1-6.3,13.8-9.2l29.9-15C153.9,3.1,183.6-1.4,212.6,0.4z"/>
<path class="st1" d="M300.8,27.2c-8.8,9.7-21.8,20.5-40.9,31.4c-59.7,33.9-99.5,26.3-153.1,53.5C70,130.7,26.6,159.8,1.4,177.4
	c2.4-20.9,8-41.3,16.8-60.7c19-13.9,46.3-31.2,75.7-40.9c54.4-18,80.8-8.3,121.8-38.1c14.6-10.7,28-21.1,39.2-30
	C270.8,12.2,286.3,18.8,300.8,27.2z"/>
<path class="st1" d="M367.8,91.1c9.1,14,16.2,28.8,21.4,44c-12.6,7.8-30,17.9-53.9,30.1c-66.8,34.2-84.4,32.1-108.7,30.7
	c-24.3-1.4-56.5-45.5-133.2-1.7c-38.9,22.3-68.2,40.4-87.7,52.9c-1.7-6.8-2.9-13.6-3.8-20.5c12.2-13.9,30-30.4,56.2-47.8
	c70.1-46.2,163.6-37.2,205.6-65.5s68.4-63.7,68.4-63.7c7.6,6.6,14.7,14,21.3,21.9c-4.4,3.9-9.5,8.7-15.6,14.3
	c-37.5,34.6-92.2,72.1-97,75.5c-4.8,3.4,18.2,8.4,45-11.1l76.8-56C364.4,93.3,366,92.3,367.8,91.1z"/>
<path class="st1" d="M305,197.8c0,0-17.8,33.9-43.5,38.2s-38.3,20.3-99.3,9.5c-56-10-118.8,23.8-136.6,51.8
	c-4.1-7.2-7.6-14.5-10.6-22l0,0C30.1,256,57.1,228.9,95.5,217c63-19.4,87.8,1.1,115,5.4C237.8,226.8,305,197.8,305,197.8z"/>
<path class="st1" d="M397.8,170.5c1.5,9.5,2.1,19,2.2,28.6c-3.1,5.2-6.8,10.7-11.1,16.4c-24.6,32.4-53,53.1-82.9,75
	c-29.9,21.8-70,10-104.5,8.9c0,0-48.3,13.2-80.1,43.8c-10.4,10.1-21.5,17.8-31.6,23.5c-9.2-6.1-18.1-13-26.3-20.8
	c33-17.3,58.5-51.6,82.7-69.3c29.9-21.8,32.9-14.3,76.5-7.3c43.6,7.1,32.7,4.9,95.1-28.6C367.2,214.3,378.1,188.9,397.8,170.5z"/>
<path class="st1" d="M139.7,264.4c0,0-46.6,58.7-83.5,74.3c-6.2-6.4-12.2-13.5-17.7-21c-1.4-2-2.8-3.8-4.1-5.8
	c10.8-13.9,29.2-32.4,55.3-39.9C133.5,259.3,139.7,264.4,139.7,264.4z"/>
<path class="st1" d="M396.8,235.6c-4.6,25.4-14.1,50-28.4,72.2c-7.3,3.9-16.2,8-27.2,12.5c-59.1,23.8-145.1,38.2-174.2,54.5
	c-9.2,5.2-16.9,11.2-23.1,17c-9.9-2.9-19.5-6.5-29-10.9c7.3-13.9,20.5-31,43.1-38.2c41.1-13.1,96.9-12.8,115-21.1
	c18.1-8.3,50.9-13,100.7-63.8C382.4,249.1,390,241.8,396.8,235.6z"/>
<g class="st2">
	<circle class="st3" cx="200" cy="177.4" r="171"/>
</g>
</svg>
